#define yafra_logo_64x64_width 64
#define yafra_logo_64x64_height 64
static unsigned char yafra_logo_64x64_bits[] = {
   0x03, 0x01, 0x41, 0x20, 0x10, 0x08, 0x08, 0x16, 0x02, 0x02, 0x41, 0x20,
   0x10, 0x04, 0x04, 0x0c, 0x04, 0x02, 0x01, 0x20, 0x10, 0x04, 0x00, 0x34,
   0x00, 0x04, 0xc0, 0xff, 0x0f, 0x04, 0x02, 0x64, 0x08, 0x00, 0xae, 0x20,
   0xe8, 0x02, 0x01, 0xc2, 0x00, 0x08, 0x83, 0x20, 0x08, 0x06, 0x01, 0x81,
   0x00, 0x30, 0x82, 0x20, 0x08, 0x1a, 0x80, 0x00, 0x20, 0x18, 0x80, 0x20,
   0x00, 0xe1, 0x80, 0x00, 0x40, 0x14, 0x04, 0x00, 0x04, 0xc1, 0x41, 0x80,
   0x00, 0x01, 0x84, 0x20, 0x04, 0x41, 0x26, 0x40, 0x81, 0x20, 0x00, 0x00,
   0x04, 0x00, 0x18, 0x20, 0x20, 0x00, 0x08, 0x20, 0x84, 0x20, 0x10, 0x10,
   0x14, 0x41, 0x08, 0x01, 0x80, 0x10, 0x68, 0x08, 0x08, 0x02, 0x80, 0xff,
   0x07, 0x10, 0x84, 0x04, 0x0c, 0x84, 0x38, 0x21, 0x74, 0x00, 0x04, 0x03,
   0x10, 0x00, 0x13, 0x00, 0xc2, 0x09, 0x02, 0x03, 0x22, 0x88, 0x11, 0x21,
   0x22, 0x0e, 0x81, 0x02, 0x01, 0x28, 0x01, 0x01, 0x22, 0x9c, 0x40, 0xc4,
   0x81, 0x10, 0x22, 0x22, 0x20, 0x22, 0x20, 0x28, 0x02, 0x28, 0x22, 0x00,
   0x01, 0xc2, 0x10, 0x10, 0x04, 0x23, 0x20, 0x32, 0x11, 0xa0, 0x09, 0x1c,
   0x08, 0x43, 0x04, 0x02, 0x11, 0x11, 0x06, 0x26, 0x20, 0x85, 0xc4, 0xff,
   0x01, 0x10, 0x06, 0x21, 0xa0, 0x88, 0x70, 0x12, 0x9d, 0x08, 0x89, 0xc0,
   0xc1, 0x10, 0x4d, 0x12, 0xe9, 0x00, 0x68, 0x60, 0x42, 0x11, 0x4b, 0x92,
   0xc8, 0x85, 0x10, 0x90, 0x28, 0xa2, 0x93, 0x90, 0x04, 0x46, 0x38, 0x8c,
   0x30, 0x44, 0x92, 0x92, 0x24, 0x2d, 0x24, 0x83, 0x60, 0x68, 0x84, 0x84,
   0x00, 0x19, 0xc2, 0x00, 0x90, 0xb0, 0xa4, 0xfe, 0x92, 0x98, 0x60, 0x80,
   0x14, 0x31, 0xe9, 0xd5, 0x17, 0x64, 0x90, 0x70, 0x10, 0x6c, 0x3b, 0x55,
   0x5a, 0x62, 0x84, 0x0c, 0x50, 0x48, 0x7e, 0x55, 0x68, 0x50, 0x83, 0x03,
   0x80, 0x98, 0x56, 0x55, 0xa1, 0x89, 0xe0, 0x00, 0x0a, 0x26, 0x57, 0x7f,
   0x95, 0xc4, 0x18, 0xc1, 0x18, 0x44, 0xdb, 0xff, 0x53, 0x13, 0x07, 0x39,
   0x50, 0x94, 0xeb, 0xb5, 0x0f, 0x8b, 0x81, 0x03, 0x10, 0xa5, 0x7d, 0xad,
   0xba, 0x44, 0xb1, 0x01, 0x10, 0xcc, 0xbd, 0xfe, 0x36, 0x16, 0x0f, 0x01,
   0x20, 0xc4, 0xdf, 0xff, 0x75, 0x8d, 0x81, 0xf8, 0x20, 0x44, 0xff, 0xc0,
   0xe7, 0x36, 0xe1, 0x87, 0x20, 0xc8, 0x3f, 0x00, 0x4e, 0x0d, 0x8f, 0x80,
   0x61, 0xc8, 0x1f, 0x00, 0x9c, 0xee, 0x81, 0x40, 0x41, 0x88, 0x0f, 0x00,
   0xf8, 0x19, 0x81, 0xd5, 0x82, 0x90, 0x07, 0x00, 0xb0, 0xe7, 0x7f, 0x65,
   0x80, 0x90, 0x07, 0x00, 0xa0, 0x9d, 0x40, 0x20, 0x06, 0x63, 0x07, 0x00,
   0xe0, 0xe7, 0x20, 0x10, 0x08, 0x42, 0x07, 0x00, 0xe0, 0xef, 0xfe, 0x13,
   0x10, 0xe4, 0x0f, 0x00, 0xe0, 0x2b, 0x18, 0x7c, 0x20, 0x0d, 0x1f, 0x00,
   0xe0, 0xf9, 0x09, 0x84, 0x40, 0x10, 0x1e, 0x00, 0xf0, 0x0b, 0x1e, 0x06,
   0x90, 0xe0, 0x7d, 0x00, 0x70, 0x1e, 0xe2, 0x02, 0x03, 0xa1, 0x78, 0xa1,
   0x9a, 0xe1, 0x81, 0x0f, 0x02, 0x0a, 0xff, 0x6e, 0x7e, 0x42, 0x43, 0x30,
   0x04, 0x0e, 0xce, 0xca, 0x2f, 0x1c, 0x2c, 0xc0, 0x08, 0x30, 0x71, 0xff,
   0xc5, 0x36, 0x38, 0x40, 0x60, 0xc0, 0xa0, 0x4f, 0xe8, 0x41, 0xc6, 0x20,
   0x60, 0x80, 0x23, 0xf4, 0x1f, 0x83, 0x01, 0x1b, 0x10, 0x21, 0x1c, 0x84,
   0x10, 0x72, 0x03, 0x06, 0x04, 0x06, 0xf0, 0x84, 0x10, 0x0e, 0x04, 0x1b,
   0x03, 0x18, 0x08, 0xde, 0x75, 0x09, 0xc8, 0x20, 0x02, 0x68, 0x08, 0x82,
   0x20, 0x10, 0x38, 0xc0, 0x08, 0x04, 0x07, 0x02, 0x40, 0x30, 0x26, 0x00,
   0x20, 0x02, 0x1c, 0x02, 0x41, 0xa0, 0x41, 0x00 };
