<?xml version="1.0" encoding="iso-8859-1"?>
<!-- Generator: Adobe Illustrator 16.0.0, SVG Export Plug-In . SVG Version: 6.00 Build 0)  -->
<!DOCTYPE svg PUBLIC "-//W3C//DTD SVG 1.1//EN" "http://www.w3.org/Graphics/SVG/1.1/DTD/svg11.dtd">
<svg version="1.1" id="Capa_1" xmlns="http://www.w3.org/2000/svg" xmlns:xlink="http://www.w3.org/1999/xlink" x="0px" y="0px"
	 width="505.139px" height="505.139px" viewBox="0 0 505.139 505.139" style="enable-background:new 0 0 505.139 505.139;"
	 xml:space="preserve">
<g>
	<g id="Layer_7_2_">
		<path d="M496.689,307.637c0-33.064-15.503-62.478-39.615-81.452v-26.825C457.074,89.432,367.636,0,257.718,0
			C147.781,0,58.356,89.432,58.356,199.359V219c-29.922,18.176-49.907,51.061-49.907,88.631
			c0,57.237,46.396,103.631,103.634,103.631V203.999c-7.368,0-14.553,0.786-21.492,2.238v-6.884
			c0-92.144,74.967-167.117,167.126-167.117c92.156,0,167.12,74.967,167.12,167.117v9.627c-10.011-3.23-20.691-4.987-31.804-4.987
			V411.25c6.722,0,13.262-0.688,19.613-1.912c-10.498,22.292-34.446,55.971-85.2,65.623c-3.306-3.697-8.074-6.06-13.414-6.06h-32.34
			c-10.004,0-18.115,8.117-18.115,18.122c0,10.004,8.111,18.115,18.115,18.115h32.353c7.757,0,14.34-4.908,16.915-11.771
			c71.322-13.415,97.073-68.832,104.686-91.368C471.627,385.772,496.689,349.664,496.689,307.637z"/>
	</g>
</g>
<g>
</g>
<g>
</g>
<g>
</g>
<g>
</g>
<g>
</g>
<g>
</g>
<g>
</g>
<g>
</g>
<g>
</g>
<g>
</g>
<g>
</g>
<g>
</g>
<g>
</g>
<g>
</g>
<g>
</g>
</svg>
