<?xml version="1.0" encoding="iso-8859-1"?>
<!-- Generator: Adobe Illustrator 18.1.1, SVG Export Plug-In . SVG Version: 6.00 Build 0)  -->
<svg version="1.1" id="Capa_1" xmlns="http://www.w3.org/2000/svg" xmlns:xlink="http://www.w3.org/1999/xlink" x="0px" y="0px"
	 viewBox="0 0 28.761 28.761" style="enable-background:new 0 0 28.761 28.761;" xml:space="preserve">
<g>
	<polygon style="fill:#030104;" points="9.947,21.163 8.828,19.345 6.464,19.769 9.574,14.253 3.508,14.253 3.508,28.761 
		13.844,28.761 13.844,14.253 	"/>
	<path style="fill:#030104;" d="M26.959,7.33h-6.863c0.4-0.207,0.76-0.422,1.077-0.652c1.221-0.874,1.868-1.981,1.866-3.081
		c0-0.902-0.427-2.194-1.048-2.733C21.37,0.32,20.547,0,19.667,0c-0.939,0-1.813,0.322-2.561,0.824
		C15.981,1.577,15.1,3.209,14.47,4.453c-0.031,0.062-0.063,0.123-0.093,0.184c-0.229-0.48-0.498-1.441-0.803-1.88
		c-0.532-0.76-1.172-1.433-1.923-1.933C10.905,0.322,10.033,0,9.094,0C8.158,0.002,7.302,0.394,6.661,0.999
		c-0.639,0.6-1.085,1.948-1.089,2.912c-0.003,0.562,0.161,1.15,0.499,1.686c0.426,0.67,1.101,1.255,2.032,1.733H1.785L1.8,13.1
		h11.863V7.33h1.446v5.77h11.866L26.959,7.33z M8.514,5.526C8.037,5.225,7.745,4.922,7.573,4.651
		C7.405,4.382,7.347,3.91,7.347,3.677C7.343,3.288,7.536,2.608,7.881,2.289c0.336-0.321,0.791-0.518,1.202-0.518h0.011
		c0.527,0.003,1.051,0.181,1.576,0.527c0.783,0.517,1.522,1.922,2.035,2.952c0.268,0.523,0.473,1.072,0.61,1.608
		C10.939,6.612,9.404,6.088,8.514,5.526z M16.635,4.271c0.428-0.613,0.934-1.625,1.456-1.974c0.521-0.346,1.049-0.523,1.575-0.527
		h0.006c0.439,0,0.861,0.172,1.149,0.427c0.29,0.259,0.442,0.733,0.442,1.066c-0.005,0.394-0.209,1.302-1.13,1.975
		c-0.874,0.636-2.39,1.288-4.722,1.745C15.635,6.059,16.065,5.081,16.635,4.271z"/>
	<polygon style="fill:#030104;" points="22.31,19.746 19.948,19.345 18.831,21.185 14.984,14.346 14.984,28.761 25.267,28.761 
		25.267,14.253 19.203,14.253 	"/>
</g>
<g>
</g>
<g>
</g>
<g>
</g>
<g>
</g>
<g>
</g>
<g>
</g>
<g>
</g>
<g>
</g>
<g>
</g>
<g>
</g>
<g>
</g>
<g>
</g>
<g>
</g>
<g>
</g>
<g>
</g>
</svg>
