<?xml version="1.0" encoding="iso-8859-1"?>
<!-- Generator: Adobe Illustrator 18.1.1, SVG Export Plug-In . SVG Version: 6.00 Build 0)  -->
<svg version="1.1" id="Capa_1" xmlns="http://www.w3.org/2000/svg" xmlns:xlink="http://www.w3.org/1999/xlink" x="0px" y="0px"
	 viewBox="0 0 23.303 23.303" style="enable-background:new 0 0 23.303 23.303;" xml:space="preserve">
<g>
	<path style="fill:#010002;" d="M8.188,9.538c0.721,0.129,1.471,0.218,2.258,0.218c4.448,0,8.054-2.185,8.054-4.877
		C18.5,2.184,14.895,0,10.447,0C5.994,0,2.391,2.184,2.391,4.878c0,1.655,1.371,3.114,3.458,3.997l-2.188,2.86L8.188,9.538z
		 M13.426,3.709c0.566,0,1.024,0.458,1.024,1.024c0,0.567-0.459,1.025-1.024,1.025c-0.566,0-1.025-0.458-1.025-1.025
		C12.401,4.167,12.86,3.709,13.426,3.709z M10.33,3.709c0.567,0,1.025,0.459,1.025,1.025c0,0.567-0.459,1.025-1.025,1.025
		c-0.566,0-1.026-0.458-1.026-1.025S9.764,3.709,10.33,3.709z M7.234,3.709c0.566,0,1.025,0.459,1.025,1.025
		c0,0.567-0.459,1.025-1.025,1.025S6.21,5.301,6.21,4.734S6.669,3.709,7.234,3.709z"/>
	<path style="fill:#010002;" d="M20.911,16.445c0-2.693-3.604-4.878-8.058-4.878c-4.447,0-8.053,2.184-8.052,4.878
		c0,2.693,3.605,4.877,8.053,4.877c0.788,0,1.537-0.088,2.259-0.216l4.528,2.197l-2.188-2.863
		C19.54,19.559,20.911,18.1,20.911,16.445z M9.967,17.261c-0.565,0-1.024-0.458-1.024-1.025s0.459-1.025,1.024-1.025
		c0.567,0,1.026,0.458,1.025,1.025C10.993,16.803,10.534,17.261,9.967,17.261z M13.065,17.261c-0.567,0-1.025-0.458-1.025-1.025
		s0.458-1.025,1.025-1.025s1.025,0.458,1.025,1.025S13.632,17.261,13.065,17.261z M16.161,17.261c-0.565,0-1.023-0.458-1.023-1.025
		s0.458-1.025,1.023-1.025c0.566,0,1.025,0.458,1.025,1.025S16.728,17.261,16.161,17.261z"/>
</g>
<g>
</g>
<g>
</g>
<g>
</g>
<g>
</g>
<g>
</g>
<g>
</g>
<g>
</g>
<g>
</g>
<g>
</g>
<g>
</g>
<g>
</g>
<g>
</g>
<g>
</g>
<g>
</g>
<g>
</g>
</svg>
