<?xml version="1.0" encoding="iso-8859-1"?>
<!-- Generator: Adobe Illustrator 16.0.0, SVG Export Plug-In . SVG Version: 6.00 Build 0)  -->
<!DOCTYPE svg PUBLIC "-//W3C//DTD SVG 1.1//EN" "http://www.w3.org/Graphics/SVG/1.1/DTD/svg11.dtd">
<svg version="1.1" id="Capa_1" xmlns="http://www.w3.org/2000/svg" xmlns:xlink="http://www.w3.org/1999/xlink" x="0px" y="0px"
	 width="45px" height="45px" viewBox="0 0 45 45" style="enable-background:new 0 0 45 45;" xml:space="preserve">
<g>
	<path d="M26.083,12.5c0,0.69-0.56,1.25-1.25,1.25H9.917c-0.69,0-1.25-0.56-1.25-1.25s0.56-1.25,1.25-1.25h14.916
		C25.523,11.25,26.083,11.81,26.083,12.5z M21.25,24.562h7.5V22.02h-7.5V24.562z M44.939,18.667l-5,22.5
		c-0.254,1.144-1.27,1.958-2.439,1.958h-5h-25h-5c-1.381,0-2.5-1.119-2.5-2.5v-30c0-1.381,1.119-2.5,2.5-2.5h1.25v-5
		c0-0.69,0.559-1.25,1.25-1.25h25c0.689,0,1.25,0.56,1.25,1.25v5h1.25c1.381,0,2.5,1.119,2.5,2.5v2.5h2.5c1.381,0,2.5,1.119,2.5,2.5
		h2.5c0.758,0,1.477,0.344,1.949,0.936C44.924,17.152,45.105,17.927,44.939,18.667z M3.75,10.625H2.5v30h1.25V10.625z M31.25,13.125
		h1.25v-2.5h-1.25V13.125z M12.5,15.625h15c0-1.381,1.119-2.5,2.5-2.5v-10H5v37.5h0.002c0-0.182,5.057-23.042,5.057-23.042
		C10.313,16.439,11.329,15.625,12.5,15.625z M35,27.062c0-1.381-1.119-2.5-2.5-2.5h-1.25V22.02c0-1.38-1.119-2.5-2.5-2.5h-7.5
		c-1.381,0-2.5,1.119-2.5,2.5v2.543H17.5c-1.381,0-2.5,1.119-2.5,2.5v10c0,1.381,1.119,2.5,2.5,2.5h15c1.381,0,2.5-1.119,2.5-2.5
		V27.062z M24.833,6.167H9.917c-0.69,0-1.25,0.56-1.25,1.25s0.56,1.25,1.25,1.25h14.916c0.69,0,1.25-0.56,1.25-1.25
		S25.523,6.167,24.833,6.167z M25.018,27.479c-1.379,0-2.5,1.121-2.5,2.5c0,0.672,0.273,1.31,0.756,1.778l-0.726,4.386
		c-0.02,0.121,0.015,0.244,0.094,0.338s0.195,0.146,0.318,0.146h4.113c0.122,0,0.239-0.054,0.319-0.148
		c0.078-0.094,0.111-0.218,0.092-0.338l-0.758-4.35c0.506-0.473,0.789-1.12,0.789-1.812C27.518,28.6,26.396,27.479,25.018,27.479z"
		/>
</g>
<g>
</g>
<g>
</g>
<g>
</g>
<g>
</g>
<g>
</g>
<g>
</g>
<g>
</g>
<g>
</g>
<g>
</g>
<g>
</g>
<g>
</g>
<g>
</g>
<g>
</g>
<g>
</g>
<g>
</g>
</svg>
