<?xml version="1.0" encoding="iso-8859-1"?>
<!-- Generator: Adobe Illustrator 16.0.0, SVG Export Plug-In . SVG Version: 6.00 Build 0)  -->
<!DOCTYPE svg PUBLIC "-//W3C//DTD SVG 1.1//EN" "http://www.w3.org/Graphics/SVG/1.1/DTD/svg11.dtd">
<svg version="1.1" id="Capa_1" xmlns="http://www.w3.org/2000/svg" xmlns:xlink="http://www.w3.org/1999/xlink" x="0px" y="0px"
	 width="45px" height="45px" viewBox="0 0 45 45" style="enable-background:new 0 0 45 45;" xml:space="preserve">
<g>
	<path d="M25.186,28.1c-0.987,1.211-2.427,1.838-3.875,1.838c-1.112,0-2.231-0.369-3.159-1.127c-2.139-1.746-2.457-4.896-0.71-7.036
		c0.988-1.21,2.426-1.837,3.876-1.837c1.112,0,2.231,0.369,3.162,1.127C26.613,22.812,26.934,25.961,25.186,28.1z M44.939,15.542
		l-5,22.5C39.688,39.186,38.671,40,37.5,40h-5h-25h-5C1.119,40,0,38.881,0,37.5v-30C0,6.119,1.119,5,2.5,5h30
		C33.881,5,35,6.119,35,7.5V10h2.5c1.381,0,2.5,1.119,2.5,2.5h2.5c0.758,0,1.477,0.344,1.95,0.936
		C44.925,14.027,45.105,14.802,44.939,15.542z M12.5,12.5h15c0-1.381,1.119-2.5,2.5-2.5h2.5V7.5h-30v30h2.502
		c0-0.182,5.058-23.042,5.058-23.042C10.313,13.314,11.328,12.5,12.5,12.5z M33.154,32.98l-3.945-3.222
		c-0.344-0.28-0.771-0.378-1.178-0.315l-0.459-0.375c0.953-1.438,1.378-3.146,1.201-4.885c-0.2-1.994-1.166-3.789-2.717-5.057
		c-1.336-1.09-3.021-1.691-4.743-1.691c-2.263,0-4.382,1.004-5.813,2.756c-2.616,3.205-2.138,7.938,1.065,10.554
		c1.335,1.09,3.019,1.689,4.741,1.689c1.843,0,3.583-0.675,4.94-1.867l0.521,0.424c0.02,0.408,0.199,0.81,0.543,1.09l3.944,3.221
		c0.279,0.229,0.614,0.34,0.948,0.34c0.436,0,0.865-0.188,1.163-0.553C33.893,34.45,33.796,33.505,33.154,32.98z"/>
</g>
<g>
</g>
<g>
</g>
<g>
</g>
<g>
</g>
<g>
</g>
<g>
</g>
<g>
</g>
<g>
</g>
<g>
</g>
<g>
</g>
<g>
</g>
<g>
</g>
<g>
</g>
<g>
</g>
<g>
</g>
</svg>
