<?xml version="1.0" encoding="iso-8859-1"?>
<!-- Generator: Adobe Illustrator 18.1.1, SVG Export Plug-In . SVG Version: 6.00 Build 0)  -->
<svg version="1.1" id="Capa_1" xmlns="http://www.w3.org/2000/svg" xmlns:xlink="http://www.w3.org/1999/xlink" x="0px" y="0px"
	 viewBox="0 0 498.131 498.131" style="enable-background:new 0 0 498.131 498.131;" xml:space="preserve">
<g>
	<path style="fill:#010002;" d="M496.351,181.273L390.966,75.86c-2.41-2.371-6.236-2.372-8.596,0l-24.264,24.17
		c-1.152,1.154-1.77,2.712-1.77,4.311c0,1.649,0.615,3.157,1.77,4.284l10.686,10.709l-25.216,25.242l-94.241,11.23l-94.216-11.216
		L129.8,119.283l10.646-10.628c1.113-1.128,1.782-2.647,1.782-4.285c0-1.61-0.656-3.157-1.782-4.311l-24.244-24.171
		c-2.365-2.371-6.21-2.371-8.588,0L1.779,181.298c-2.372,2.356-2.373,6.21,0,8.566l24.165,24.211
		c0.233,0.236,0.486,0.465,0.748,0.683l50.326,79.26c2.868,5.316,8.077,14.596,10.565,17.058l105.3,105.333
		c4.86,4.849,11.124,7.641,17.307,7.641c4.802,0,9.23-1.745,12.414-4.939l1.565-1.508l0.064,0.064
		c6.229,6.234,16.717,7.283,25.062,2.777c8.379,4.506,18.885,3.457,25.069-2.753l0.078-0.092l1.547,1.509
		c3.156,3.195,7.572,4.938,12.42,4.938c6.131,0,12.445-2.791,17.293-7.64L411.036,311.1l59.862-95.798l25.453-25.467
		c1.126-1.14,1.78-2.659,1.78-4.283C498.132,183.929,497.504,182.411,496.351,181.273z M388.346,96.991
		c4.716,0,8.462,3.84,8.462,8.517c0,4.717-3.771,8.556-8.462,8.556c-4.743,0-8.608-3.865-8.608-8.555
		C379.738,100.831,383.578,97.006,388.346,96.991z M100.679,104.748c0.958-4.585,5.529-7.532,10.161-6.563
		c4.585,0.969,7.54,5.502,6.557,10.088c-0.963,4.599-5.502,7.572-10.088,6.603C102.69,113.906,99.716,109.32,100.679,104.748z
		 M313.316,371.462c1.455,1.509,2.098,3.156,0.852,4.391l-12.682,12.668c-0.365,0.367-0.98,0.482-1.388,0.482
		c-1.05,0-2.149-0.511-3.015-1.375l-15.25-15.46l-46.889-46.822l-12.99,12.938c0.034,0.034,0.06,0.073,0.094,0.105l50.381,50.405
		c0.482,0.497,1.688,1.911,0.641,2.946c0,0-10.152,10.167-12.261,12.264c-2.085,2.098-4.402-0.892-4.402-0.892l-51.927-51.971
		c-8.549,0-17.098-0.001-25.647-0.001c0.203,0.289,0.422,0.567,0.679,0.819l38.754,38.727c1.258,1.246,2.69,2.902,1.48,4.119
		l-10.063,10.021c-1.016,1.008-2.693,0.683-4.238-0.93L100.359,298.854c-3.139-4.521-28.601-47.52-46.687-78.148l75.233-75.213
		l16.292,16.587c1.067,1.087,2.476,1.729,3.996,1.82l41.846,4.508c-4.821,5.188-7.448,12.669-6.413,20.595l2.881,22.73
		c1.728,13.271,13.067,23.058,25.598,21.551l27.5-2.58l90.28,90.938c1.455,1.478,1.455,3.862,0,5.305l-14.568,14.594
		c-1.4,1.393-3.902,1.392-5.307,0.001l-57.624-57.637v27.602L313.316,371.462z M398.252,298.907l-66.646,66.671l-5.908-6.289
		l18.684-18.771c12.725-12.725,8.895-25.659-8.148-42.643l-73.145-72.123c0,0,3.996-3.42,4.258-3.616l-4.086-13.338l-51.939,4.757
		c-0.131,0-0.681,0.013-0.833,0.039c-1.893,0-3.647-1.888-3.956-4.284l-2.921-22.704c-0.19-1.441,0.144-2.896,0.963-3.931
		c0.413-0.523,1.101-1.166,2.123-1.336l142.808-17.383c1.508-0.079,2.908-0.748,3.98-1.808l16.285-16.586l75.254,75.213
		C426.941,251.429,401.472,294.385,398.252,298.907z"/>
</g>
<g>
</g>
<g>
</g>
<g>
</g>
<g>
</g>
<g>
</g>
<g>
</g>
<g>
</g>
<g>
</g>
<g>
</g>
<g>
</g>
<g>
</g>
<g>
</g>
<g>
</g>
<g>
</g>
<g>
</g>
</svg>
