<?xml version="1.0" encoding="iso-8859-1"?>
<!-- Generator: Adobe Illustrator 16.0.0, SVG Export Plug-In . SVG Version: 6.00 Build 0)  -->
<!DOCTYPE svg PUBLIC "-//W3C//DTD SVG 1.1//EN" "http://www.w3.org/Graphics/SVG/1.1/DTD/svg11.dtd">
<svg version="1.1" id="Capa_1" xmlns="http://www.w3.org/2000/svg" xmlns:xlink="http://www.w3.org/1999/xlink" x="0px" y="0px"
	 width="50px" height="50px" viewBox="0 0 50 50" style="enable-background:new 0 0 50 50;" xml:space="preserve">
<g>
	<g>
		<path d="M46.875,4.854H3.125C1.402,4.854,0,6.254,0,7.979v28.125c0,1.725,1.402,3.125,3.125,3.125h17.911
			c-0.681-1.193-1.517-2.729-2.557-4.688H4.688v-25h40.625v25h-2.062v3.373c0,0.107-0.015,0.609-0.128,1.313h3.752
			c1.723,0,3.125-1.401,3.125-3.125V7.979C50,6.254,48.598,4.854,46.875,4.854z M47.641,23.604c-0.865,0-1.562-0.699-1.562-1.562
			c0-0.863,0.697-1.563,1.562-1.563c0.861,0,1.562,0.701,1.562,1.563S48.502,23.604,47.641,23.604z"/>
		<path d="M39.052,22.406h-0.176c-1.024,0-1.858,0.832-1.858,1.854v1.658H36.79V24.26c0-1.023-0.836-1.854-1.856-1.854h-0.182
			c-1.021,0-1.854,0.832-1.854,1.854v1.658h-0.23V24.26c0-1.023-0.834-1.854-1.854-1.854h-0.184c-1.02,0-1.854,0.832-1.854,1.854
			v1.658h-0.121V15.324c0-1.029-0.833-1.866-1.866-1.866l-0.181-0.001c-1.027,0-1.863,0.837-1.863,1.867v16.209
			c-0.498-0.562-0.936-1.135-1.337-1.652c-0.892-1.154-1.593-2.068-2.385-2.25c-0.879-0.209-1.691,0.084-2.082,0.718
			c-0.367,0.603-0.311,1.433,0.153,2.333c1.016,1.943,5.897,10.479,5.9,10.479c0.386,0.934,2.089,3.986,7.823,3.986v-0.204
			l0.006,0.204c4.17,0,6.145-1.968,7.068-3.618c0.996-1.782,1.012-3.538,1.012-3.614V24.26
			C40.907,23.236,40.07,22.406,39.052,22.406z"/>
	</g>
</g>
<g>
</g>
<g>
</g>
<g>
</g>
<g>
</g>
<g>
</g>
<g>
</g>
<g>
</g>
<g>
</g>
<g>
</g>
<g>
</g>
<g>
</g>
<g>
</g>
<g>
</g>
<g>
</g>
<g>
</g>
</svg>
