<?xml version="1.0" encoding="iso-8859-1"?>
<!-- Generator: Adobe Illustrator 18.1.1, SVG Export Plug-In . SVG Version: 6.00 Build 0)  -->
<svg version="1.1" id="Capa_1" xmlns="http://www.w3.org/2000/svg" xmlns:xlink="http://www.w3.org/1999/xlink" x="0px" y="0px"
	 viewBox="0 0 16 16" style="enable-background:new 0 0 16 16;" xml:space="preserve">
<g>
	<g>
		<g>
			<path style="fill:#010002;" d="M8,0C3.582,0,0,3.582,0,8s3.582,8,8,8s8-3.582,8-8C16,3.581,12.418,0,8,0z M12.915,9.791
				c-0.054,0.666-0.56,1.516-1.267,1.639c-2.265,0.176-4.949,0.154-7.295,0c-0.732-0.092-1.213-0.974-1.267-1.639
				c-0.114-1.398-0.114-2.194,0-3.592C3.14,5.534,3.633,4.657,4.353,4.577c2.319-0.195,5.018-0.153,7.295,0
				c0.814,0.03,1.213,0.869,1.267,1.535C13.027,7.51,13.027,8.393,12.915,9.791z"/>
			<polygon style="fill:#010002;" points="7,10 10,8 7,6 			"/>
		</g>
	</g>
</g>
<g>
</g>
<g>
</g>
<g>
</g>
<g>
</g>
<g>
</g>
<g>
</g>
<g>
</g>
<g>
</g>
<g>
</g>
<g>
</g>
<g>
</g>
<g>
</g>
<g>
</g>
<g>
</g>
<g>
</g>
</svg>
