<?xml version="1.0" encoding="iso-8859-1"?>
<!-- Generator: Adobe Illustrator 16.0.0, SVG Export Plug-In . SVG Version: 6.00 Build 0)  -->
<!DOCTYPE svg PUBLIC "-//W3C//DTD SVG 1.1//EN" "http://www.w3.org/Graphics/SVG/1.1/DTD/svg11.dtd">
<svg version="1.1" id="Capa_1" xmlns="http://www.w3.org/2000/svg" xmlns:xlink="http://www.w3.org/1999/xlink" x="0px" y="0px"
	 width="512px" height="512px" viewBox="0 0 512 512" style="enable-background:new 0 0 512 512;" xml:space="preserve">
<g>
	<g>
		<path d="M416,0H96v224h320V0z M384,192H128V32h256V192z"/>
		<path d="M448,224v32H64v-32c-35.344,0-64,28.656-64,64v192c0,17.688,14.313,32,32,32h448c17.688,0,32-14.312,32-32V288
			C512,252.656,483.344,224,448,224z M416,448c0,17.688-14.312,32-32,32H128c-17.688,0-32-14.312-32-32v-32h320V448z M464,352h-32
			c-8.844,0-16-7.156-16-16s7.156-16,16-16h32c8.844,0,16,7.156,16,16S472.844,352,464,352z"/>
		<rect x="160" y="64" width="192" height="32"/>
		<rect x="160" y="128" width="192" height="32"/>
	</g>
</g>
<g>
</g>
<g>
</g>
<g>
</g>
<g>
</g>
<g>
</g>
<g>
</g>
<g>
</g>
<g>
</g>
<g>
</g>
<g>
</g>
<g>
</g>
<g>
</g>
<g>
</g>
<g>
</g>
<g>
</g>
</svg>
