<?xml version="1.0" encoding="iso-8859-1"?>
<!-- Generator: Adobe Illustrator 16.0.0, SVG Export Plug-In . SVG Version: 6.00 Build 0)  -->
<!DOCTYPE svg PUBLIC "-//W3C//DTD SVG 1.1//EN" "http://www.w3.org/Graphics/SVG/1.1/DTD/svg11.dtd">
<svg version="1.1" id="Capa_1" xmlns="http://www.w3.org/2000/svg" xmlns:xlink="http://www.w3.org/1999/xlink" x="0px" y="0px"
	 width="485.213px" height="485.212px" viewBox="0 0 485.213 485.212" style="enable-background:new 0 0 485.213 485.212;"
	 xml:space="preserve">
<g>
	<g>
		<path d="M121.305,30.327h242.604v60.651h30.327V30.327C394.236,13.595,380.674,0,363.909,0H121.305
			c-16.731,0-30.327,13.595-30.327,30.327v60.651h30.327V30.327z"/>
		<path d="M454.89,121.304H30.328c-16.731,0-30.327,13.591-30.327,30.324v151.629c0,16.764,13.595,30.327,30.327,30.327h60.651
			v121.302c0,16.764,13.595,30.326,30.327,30.326h242.604c16.765,0,30.327-13.562,30.327-30.326V333.584h60.653
			c16.759,0,30.322-13.563,30.322-30.327V151.628C485.212,134.895,471.648,121.304,454.89,121.304z M363.909,454.886H121.305
			v-212.28h242.604V454.886z M424.562,212.282c-16.764,0-30.326-13.564-30.326-30.327c0-16.731,13.562-30.327,30.326-30.327
			c16.765,0,30.327,13.595,30.327,30.327C454.89,198.717,441.327,212.282,424.562,212.282z"/>
		<rect x="151.629" y="272.93" width="121.304" height="30.327"/>
		<rect x="151.629" y="333.584" width="181.958" height="30.321"/>
		<rect x="151.629" y="394.237" width="181.958" height="30.322"/>
	</g>
</g>
<g>
</g>
<g>
</g>
<g>
</g>
<g>
</g>
<g>
</g>
<g>
</g>
<g>
</g>
<g>
</g>
<g>
</g>
<g>
</g>
<g>
</g>
<g>
</g>
<g>
</g>
<g>
</g>
<g>
</g>
</svg>
