<?xml version="1.0" encoding="iso-8859-1"?>
<!-- Generator: Adobe Illustrator 16.0.0, SVG Export Plug-In . SVG Version: 6.00 Build 0)  -->
<!DOCTYPE svg PUBLIC "-//W3C//DTD SVG 1.1//EN" "http://www.w3.org/Graphics/SVG/1.1/DTD/svg11.dtd">
<svg version="1.1" id="Capa_1" xmlns="http://www.w3.org/2000/svg" xmlns:xlink="http://www.w3.org/1999/xlink" x="0px" y="0px"
	 width="45px" height="45px" viewBox="0 0 45 45" style="enable-background:new 0 0 45 45;" xml:space="preserve">
<g>
	<path d="M44.449,16.561c-0.475-0.591-1.191-0.936-1.949-0.936H40c0-1.381-1.119-2.5-2.5-2.5H35v-2.5c0-1.381-1.119-2.5-2.5-2.5
		h-1.25v-5c0-0.69-0.561-1.25-1.25-1.25H5c-0.691,0-1.25,0.56-1.25,1.25v5H2.5c-1.381,0-2.5,1.119-2.5,2.5v30
		c0,1.381,1.119,2.5,2.5,2.5h5h25h5c1.172,0,2.188-0.814,2.439-1.958l5-22.5C45.105,17.927,44.924,17.152,44.449,16.561z
		 M3.75,40.625H2.5v-30h1.25V40.625z M31.468,28.469l-8.75,8.749c-0.488,0.488-1.279,0.488-1.768,0l-8.75-8.75
		c-0.357-0.356-0.465-0.895-0.271-1.362c0.193-0.467,0.648-0.771,1.154-0.771h3.125V15.626H12.5c-1.172,0-2.188,0.814-2.441,1.958
		c0,0-5.057,22.861-5.057,23.042H5v-37.5h25v10c-1.381,0-2.5,1.119-2.5,2.5h-0.042v10.71h3.125c0.506,0,0.961,0.305,1.155,0.771
		C31.934,27.574,31.825,28.111,31.468,28.469z M32.5,13.125h-1.25v-2.5h1.25V13.125z M8.667,7.417c0-0.69,0.56-1.25,1.25-1.25
		h14.916c0.69,0,1.25,0.56,1.25,1.25s-0.56,1.25-1.25,1.25H9.917C9.228,8.667,8.667,8.107,8.667,7.417z M24.833,13.75H9.917
		c-0.69,0-1.25-0.56-1.25-1.25s0.56-1.25,1.25-1.25h14.916c0.69,0,1.25,0.56,1.25,1.25S25.523,13.75,24.833,13.75z"/>
</g>
<g>
</g>
<g>
</g>
<g>
</g>
<g>
</g>
<g>
</g>
<g>
</g>
<g>
</g>
<g>
</g>
<g>
</g>
<g>
</g>
<g>
</g>
<g>
</g>
<g>
</g>
<g>
</g>
<g>
</g>
</svg>
