<?xml version="1.0" encoding="iso-8859-1"?>
<!-- Generator: Adobe Illustrator 16.0.0, SVG Export Plug-In . SVG Version: 6.00 Build 0)  -->
<!DOCTYPE svg PUBLIC "-//W3C//DTD SVG 1.1//EN" "http://www.w3.org/Graphics/SVG/1.1/DTD/svg11.dtd">
<svg version="1.1" id="Capa_1" xmlns="http://www.w3.org/2000/svg" xmlns:xlink="http://www.w3.org/1999/xlink" x="0px" y="0px"
	 width="45px" height="45px" viewBox="0 0 45 45" style="enable-background:new 0 0 45 45;" xml:space="preserve">
<g>
	<path d="M44.45,13.436c-0.474-0.591-1.192-0.936-1.95-0.936H40c0-1.381-1.119-2.5-2.5-2.5H35V7.5C35,6.119,33.881,5,32.5,5h-30
		C1.119,5,0,6.119,0,7.5v30C0,38.881,1.119,40,2.5,40h5h25h5c1.172,0,2.188-0.814,2.439-1.958l5-22.5
		C45.105,14.802,44.925,14.027,44.45,13.436z M32.5,10H30c-1.296,0-2.35,0.99-2.475,2.253v9.041h3.125
		c0.504,0,0.961,0.305,1.154,0.771c0.192,0.468,0.086,1.006-0.271,1.362l-8.75,8.749c-0.244,0.244-0.564,0.366-0.884,0.366
		c-0.32,0-0.64-0.122-0.884-0.366l-8.75-8.75c-0.357-0.357-0.464-0.895-0.271-1.361c0.193-0.467,0.649-0.771,1.155-0.771h3.125V12.5
		H12.5c-1.172,0-2.187,0.814-2.44,1.958l-5,22.5C5.02,37.139,5.002,37.32,5.002,37.5H2.5v-30h30V10z"/>
</g>
<g>
</g>
<g>
</g>
<g>
</g>
<g>
</g>
<g>
</g>
<g>
</g>
<g>
</g>
<g>
</g>
<g>
</g>
<g>
</g>
<g>
</g>
<g>
</g>
<g>
</g>
<g>
</g>
<g>
</g>
</svg>
