<?xml version="1.0" encoding="iso-8859-1"?>
<!-- Generator: Adobe Illustrator 18.1.1, SVG Export Plug-In . SVG Version: 6.00 Build 0)  -->
<svg version="1.1" id="Capa_1" xmlns="http://www.w3.org/2000/svg" xmlns:xlink="http://www.w3.org/1999/xlink" x="0px" y="0px"
	 viewBox="0 0 100 100" style="enable-background:new 0 0 100 100;" xml:space="preserve">
<g>
	<g>
		<path style="fill:#030104;" d="M100,94c0,0-0.197-18.934-1.354-20.896c-1.721-2.923-5.729-4.932-13.17-8.041
			c-7.416-3.101-9.787-5.716-9.787-11.316c0-3.364,2.264-2.264,3.26-8.419c0.412-2.555,2.412-0.043,2.795-5.872
			c0-2.324-1.092-2.903-1.092-2.903s0.555-3.437,0.771-6.084c0.27-3.298-1.662-11.815-11.955-11.815
			c-10.295,0-12.225,8.518-11.955,11.815c0.217,2.647,0.77,6.084,0.77,6.084s-1.09,0.579-1.09,2.903
			c0.383,5.829,2.381,3.317,2.795,5.872c0.994,6.155,3.26,5.056,3.26,8.419c0,3.807-1.102,6.235-4.137,8.375
			c16.203,8.111,18.375,9.764,18.375,17.015V94H100z M51.117,67.877c-9.891-4.134-13.051-7.621-13.051-15.086
			c0-4.483,3.02-3.019,4.346-11.228c0.549-3.404,3.217-0.056,3.727-7.829c0-3.098-1.455-3.868-1.455-3.868s0.74-4.583,1.029-8.112
			C46.072,17.357,43.498,6,29.771,6c-13.724,0-16.3,11.357-15.939,15.754c0.289,3.529,1.027,8.112,1.027,8.112
			s-1.455,0.77-1.455,3.868c0.512,7.773,3.178,4.425,3.729,7.829c1.326,8.208,4.346,6.744,4.346,11.228
			c0,7.465-3.162,10.952-13.051,15.086C5.414,69.137,0,71.088,0,75.783V94h69.469c0,0,0-10.776,0-13.659
			C69.469,76.059,61.037,72.025,51.117,67.877z"/>
	</g>
</g>
<g>
</g>
<g>
</g>
<g>
</g>
<g>
</g>
<g>
</g>
<g>
</g>
<g>
</g>
<g>
</g>
<g>
</g>
<g>
</g>
<g>
</g>
<g>
</g>
<g>
</g>
<g>
</g>
<g>
</g>
</svg>
