<?xml version="1.0" encoding="iso-8859-1"?>
<!-- Generator: Adobe Illustrator 18.1.1, SVG Export Plug-In . SVG Version: 6.00 Build 0)  -->
<svg version="1.1" id="Capa_1" xmlns="http://www.w3.org/2000/svg" xmlns:xlink="http://www.w3.org/1999/xlink" x="0px" y="0px"
	 viewBox="0 0 26.56 26.56" style="enable-background:new 0 0 26.56 26.56;" xml:space="preserve">
<g>
	<path style="fill:#010002;" d="M26.438,23.839l-2.059-5.625c0.642-1.517,0.995-3.185,0.995-4.934
		c0.001-7.008-5.679-12.688-12.686-12.688S0,6.272,0,13.28c0,7.007,5.681,12.688,12.688,12.688c3.006,0,5.763-1.051,7.937-2.797
		l4.639,1.817C26.287,25.388,26.816,24.871,26.438,23.839z M6.375,14.904c-0.896,0-1.625-0.729-1.625-1.625s0.729-1.625,1.625-1.625
		C7.272,11.654,8,12.382,8,13.28S7.272,14.904,6.375,14.904z M12.375,14.904c-0.896,0-1.625-0.729-1.625-1.625
		s0.729-1.625,1.625-1.625c0.897,0,1.625,0.728,1.625,1.626S13.272,14.904,12.375,14.904z M18.375,14.904
		c-0.896,0-1.625-0.729-1.625-1.625s0.729-1.625,1.625-1.625c0.897,0,1.625,0.728,1.625,1.626S19.272,14.904,18.375,14.904z"/>
</g>
<g>
</g>
<g>
</g>
<g>
</g>
<g>
</g>
<g>
</g>
<g>
</g>
<g>
</g>
<g>
</g>
<g>
</g>
<g>
</g>
<g>
</g>
<g>
</g>
<g>
</g>
<g>
</g>
<g>
</g>
</svg>
