<?xml version="1.0" encoding="iso-8859-1"?>
<!-- Generator: Adobe Illustrator 16.0.0, SVG Export Plug-In . SVG Version: 6.00 Build 0)  -->
<!DOCTYPE svg PUBLIC "-//W3C//DTD SVG 1.1//EN" "http://www.w3.org/Graphics/SVG/1.1/DTD/svg11.dtd">
<svg version="1.1" id="Capa_1" xmlns="http://www.w3.org/2000/svg" xmlns:xlink="http://www.w3.org/1999/xlink" x="0px" y="0px"
	 width="67.971px" height="67.971px" viewBox="0 0 67.971 67.971" style="enable-background:new 0 0 67.971 67.971;"
	 xml:space="preserve">
<g>
	<path d="M65.102,3.991H2.873C1.287,3.991,0,5.277,0,6.864v43.688c0,1.588,1.287,2.875,2.873,2.875H14.12v8.26
		c0,2.23,1.462,2.96,3.247,1.626L30.6,53.429h34.5c1.585,0,2.871-1.287,2.871-2.872V6.864C67.976,5.277,66.687,3.991,65.102,3.991z
		 M18.311,32.812c-2.455,0-4.445-1.99-4.445-4.445c0-2.456,1.99-4.445,4.445-4.445c2.456,0,4.446,1.989,4.446,4.445
		C22.754,30.822,20.764,32.812,18.311,32.812z M33.988,32.812c-2.454,0-4.444-1.99-4.444-4.445c0-2.456,1.99-4.445,4.444-4.445
		c2.455,0,4.446,1.989,4.446,4.445C38.432,30.822,36.443,32.812,33.988,32.812z M49.668,32.812c-2.457,0-4.448-1.99-4.448-4.445
		c0-2.456,1.991-4.445,4.448-4.445c2.454,0,4.443,1.989,4.443,4.445C54.112,30.822,52.123,32.812,49.668,32.812z"/>
</g>
<g>
</g>
<g>
</g>
<g>
</g>
<g>
</g>
<g>
</g>
<g>
</g>
<g>
</g>
<g>
</g>
<g>
</g>
<g>
</g>
<g>
</g>
<g>
</g>
<g>
</g>
<g>
</g>
<g>
</g>
</svg>
