<?xml version="1.0" encoding="iso-8859-1"?>
<!-- Generator: Adobe Illustrator 16.0.0, SVG Export Plug-In . SVG Version: 6.00 Build 0)  -->
<!DOCTYPE svg PUBLIC "-//W3C//DTD SVG 1.1//EN" "http://www.w3.org/Graphics/SVG/1.1/DTD/svg11.dtd">
<svg version="1.1" id="Capa_1" xmlns="http://www.w3.org/2000/svg" xmlns:xlink="http://www.w3.org/1999/xlink" x="0px" y="0px"
	 width="94.996px" height="94.996px" viewBox="0 0 94.996 94.996" style="enable-background:new 0 0 94.996 94.996;"
	 xml:space="preserve">
<g>
	<path d="M7.689,59.062c-1.281-0.844-2.876-1.893-2.121-7.516c0.051-0.381-0.121-0.757-0.441-0.969
		C5.01,50.5,3.946,49.823,2.784,49.823c-0.761,0-1.416,0.285-1.896,0.825c-0.797,0.896-1.054,2.435-0.784,4.7
		c0.758,6.393,3.818,7.502,4.72,7.689c0.428,0.206,1.644,0.743,2.678,0.743c0.839,0,1.317-0.346,1.57-0.636
		c0.382-0.438,0.525-1.031,0.426-1.765C9.328,60.138,8.458,59.566,7.689,59.062z"/>
	<path d="M21.07,58.038c0-0.438-0.287-0.828-0.708-0.956c-0.42-0.132-0.876,0.032-1.122,0.398c-0.715,1.062-1.401,1.647-1.933,1.647
		c-1.262,0-2.751-3.253-3.341-5.601c-0.122-0.488-0.582-0.811-1.087-0.75c-0.479,0.057-0.954,0.085-1.415,0.085
		c-2.484,0-3.877-0.831-3.885-0.835c-0.308-0.194-0.697-0.206-1.016-0.03c-0.319,0.176-0.518,0.512-0.518,0.876
		c0,3.321,2.542,7.163,4.26,8.714c2.458,2.215,4.501,3.291,6.246,3.291C20.118,64.879,21.07,60.579,21.07,58.038z"/>
	<path d="M10.789,52.24C10.79,52.24,10.79,52.24,10.789,52.24c2.365,0,5.114-0.812,8.172-2.409
		c9.77-5.107,52.343-27.729,52.743-27.941c0.524-0.257,3.152-1.638,3.211-3.576c0.021-0.671-0.258-1.642-1.698-2.459l-3.369-1.908
		c-0.3-0.17-0.664-0.175-0.966-0.011L5.227,48.064c-0.237,0.127-0.413,0.344-0.488,0.603c-0.074,0.259-0.042,0.536,0.091,0.771
		C4.894,49.551,6.465,52.24,10.789,52.24z"/>
	<g>
		<path d="M74.271,26.343l-1.796-3.256c-0.266-0.48-0.865-0.655-1.352-0.397L18.809,50.87c-0.281,0.152-0.474,0.43-0.517,0.746
			c-0.043,0.317,0.068,0.636,0.3,0.856c0.048,0.047,4.818,4.677,3.552,8.868c-0.117,0.388,0.01,0.806,0.322,1.062
			c0.183,0.149,0.408,0.228,0.635,0.228c0.16,0,0.321-0.038,0.469-0.115l43.783-23.239c0.338-0.18,0.544-0.536,0.53-0.918
			c-0.002-0.061-0.135-6.045,6.111-10.73C74.394,27.328,74.512,26.78,74.271,26.343z"/>
		<path d="M57.427,45.37L42.72,53.343c-0.349,0.188-0.553,0.566-0.52,0.962c0.139,1.67,4.324,8.34,10.064,8.34
			c1.781,0,3.54-0.639,5.227-1.896c2.314-1.728,3.646-3.854,3.959-6.318c0.58-4.589-2.631-8.637-2.768-8.807
			C58.379,45.247,57.852,45.138,57.427,45.37z M52.627,58.365c-1.914,0-3.471-1.557-3.471-3.471s1.557-3.472,3.471-3.472
			c1.912,0,3.47,1.558,3.47,3.472S54.539,58.365,52.627,58.365z"/>
		<circle cx="52.627" cy="54.894" r="1.471"/>
	</g>
	<path d="M85.945,63.774l-4.716,0.111c-0.543,0.015-0.978,0.457-0.978,1v3.49H64.863c-6.811,0-8.758-4.666-8.834-4.858
		c-0.15-0.386-0.521-0.64-0.934-0.64h-4.939c-0.553,0-1,0.447-1,1c0,7.947,8.077,10.768,14.993,10.768l15.99-0.026L80.113,77
		c-0.002,0.268,0.103,0.524,0.289,0.714c0.188,0.19,0.443,0.297,0.711,0.297h4.855c0.553,0,1-0.446,1-1V64.774
		c0-0.271-0.107-0.527-0.303-0.716C86.475,63.87,86.189,63.772,85.945,63.774z"/>
	<path d="M93.996,60.645h-5.558c-0.553,0-1,0.446-1,1v18.536c0,0.554,0.447,1,1,1h5.558c0.553,0,1-0.446,1-1V61.645
		C94.996,61.091,94.549,60.645,93.996,60.645z"/>
</g>
<g>
</g>
<g>
</g>
<g>
</g>
<g>
</g>
<g>
</g>
<g>
</g>
<g>
</g>
<g>
</g>
<g>
</g>
<g>
</g>
<g>
</g>
<g>
</g>
<g>
</g>
<g>
</g>
<g>
</g>
</svg>
