<?xml version="1.0" encoding="iso-8859-1"?>
<!-- Generator: Adobe Illustrator 18.1.1, SVG Export Plug-In . SVG Version: 6.00 Build 0)  -->
<svg version="1.1" id="Capa_1" xmlns="http://www.w3.org/2000/svg" xmlns:xlink="http://www.w3.org/1999/xlink" x="0px" y="0px"
	 viewBox="0 0 155.139 155.139" style="enable-background:new 0 0 155.139 155.139;" xml:space="preserve">
<g>
	<path id="path3110_1_" style="fill:#010002;" d="M5.764,70.376h27.215v68.691H5.764C5.764,139.067,5.764,70.376,5.764,70.376z
		 M107.869,8.655v55.742h41.488V133.1l-13.39,13.372H93.608l-26.767-13.825h-28.08V77.787h28.08L94.038,8.661h13.831V8.655z
		 M38.767,72.023V70.4c0-3.192-2.584-5.776-5.776-5.776H5.776C2.59,64.624,0,67.208,0,70.4v68.691c0,3.192,2.596,5.782,5.776,5.782
		h27.215c3.192,0,5.776-2.59,5.776-5.782v-0.734h26.642l25.61,13.294c0.806,0.4,1.701,0.615,2.602,0.615h42.365
		c1.528,0,2.995-0.615,4.081-1.689l13.378-13.384c1.086-1.098,1.695-2.578,1.695-4.105V64.391c-0.012-3.186-2.775-5.758-5.955-5.758
		h-35.533V8.649c0-3.192-2.578-5.776-5.77-5.776c-0.06,0-0.125,0-0.185,0H93.871c-2.315,0.072-4.35,3.622-5.197,5.776L62.944,72.035
		"/>
</g>
<g>
</g>
<g>
</g>
<g>
</g>
<g>
</g>
<g>
</g>
<g>
</g>
<g>
</g>
<g>
</g>
<g>
</g>
<g>
</g>
<g>
</g>
<g>
</g>
<g>
</g>
<g>
</g>
<g>
</g>
</svg>
