<?xml version="1.0" encoding="iso-8859-1"?>
<!-- Generator: Adobe Illustrator 18.1.1, SVG Export Plug-In . SVG Version: 6.00 Build 0)  -->
<svg version="1.1" id="Capa_1" xmlns="http://www.w3.org/2000/svg" xmlns:xlink="http://www.w3.org/1999/xlink" x="0px" y="0px"
	 viewBox="0 0 18.875 18.875" style="enable-background:new 0 0 18.875 18.875;" xml:space="preserve">
<g>
	<path d="M17.905,10.877v5.564c0,0.348-0.073,0.665-0.221,0.956c-0.147,0.293-0.348,0.549-0.603,0.769
		c-0.254,0.221-0.547,0.392-0.88,0.519c-0.335,0.126-0.695,0.19-1.083,0.19H3.745c-0.379,0-0.736-0.064-1.07-0.19
		c-0.334-0.127-0.628-0.298-0.881-0.519c-0.252-0.22-0.455-0.476-0.604-0.769c-0.147-0.291-0.22-0.608-0.22-0.956v-5.564
		c0-0.33,0.073-0.645,0.221-0.944c0.148-0.3,0.352-0.559,0.604-0.773c0.253-0.215,0.547-0.39,0.881-0.52s0.691-0.196,1.07-0.196
		h11.373c0.379,0,0.737,0.066,1.076,0.196c0.338,0.13,0.633,0.305,0.887,0.52c0.255,0.215,0.455,0.474,0.603,0.773
		S17.905,10.547,17.905,10.877z M4.507,17.062v-5.869h1.395v-0.887H2.136v0.862h1.207v5.894H4.507z M5.076,3.409L3.517,0h1.357
		L5.65,2.548L6.423,0h1.355l-1.46,3.409v3.97H5.076V3.409z M8.741,12.055H7.576v3.133c0,0.227,0.002,0.403,0.011,0.524
		c0.008,0.124-0.009,0.202-0.051,0.235c-0.035,0.135-0.133,0.234-0.3,0.298c-0.161,0.062-0.286-0.026-0.373-0.273
		c-0.018-0.033-0.02-0.116-0.011-0.246c0.008-0.132,0.011-0.303,0.011-0.515l-0.024-3.156H5.673L5.7,15.162
		c0,0.244-0.006,0.448-0.014,0.613S5.68,16.064,5.7,16.149c0.016,0.137,0.031,0.281,0.049,0.438
		c0.016,0.155,0.096,0.281,0.242,0.374c0.135,0.084,0.293,0.128,0.473,0.128c0.184,0,0.362-0.031,0.534-0.091
		c0.175-0.06,0.333-0.141,0.481-0.245c0.147-0.105,0.256-0.219,0.322-0.337l-0.023,0.62l0.963,0.025V12.055z M7.675,3.93
		c0-0.465,0.045-0.851,0.127-1.152C7.906,2.464,8.069,2.24,8.298,2.104C8.527,1.935,8.818,1.85,9.173,1.85
		c0.312,0,0.572,0.052,0.786,0.152c0.21,0.085,0.384,0.232,0.519,0.444c0.102,0.154,0.179,0.325,0.229,0.521
		c0.048,0.211,0.075,0.494,0.075,0.85v1.329c0,0.483-0.027,0.829-0.075,1.042c-0.02,0.193-0.102,0.409-0.256,0.646
		c-0.151,0.21-0.315,0.35-0.492,0.418C9.745,7.354,9.507,7.403,9.235,7.403c-0.276,0-0.533-0.042-0.759-0.127
		c-0.213-0.067-0.37-0.19-0.469-0.366C7.906,6.772,7.82,6.584,7.751,6.338c-0.049-0.23-0.076-0.573-0.076-1.039V3.93z M8.715,5.996
		c0,0.135,0.051,0.256,0.153,0.362c0.1,0.104,0.224,0.157,0.366,0.157c0.134,0,0.256-0.05,0.362-0.152
		c0.106-0.1,0.157-0.224,0.157-0.367V3.245c0-0.152-0.051-0.279-0.157-0.385C9.491,2.754,9.368,2.7,9.235,2.7
		c-0.135,0-0.256,0.054-0.36,0.16c-0.106,0.106-0.16,0.233-0.16,0.385V5.996z M12.505,15.63v-2.599c0-0.498-0.176-0.854-0.53-1.064
		c-0.118-0.067-0.256-0.102-0.407-0.102c-0.28,0-0.6,0.131-0.963,0.393v-1.952H9.439v6.706l0.964-0.025l0.075-0.418
		c0.313,0.263,0.596,0.423,0.843,0.482c0.251,0.058,0.46,0.035,0.634-0.071c0.174-0.104,0.309-0.277,0.405-0.52
		C12.456,16.22,12.505,15.941,12.505,15.63z M11.1,12.512c0.135,0,0.253,0.04,0.36,0.121c0.105,0.08,0.158,0.171,0.158,0.271v2.942
		c0,0.101-0.053,0.188-0.158,0.265c-0.107,0.076-0.226,0.115-0.36,0.115c-0.137,0-0.256-0.039-0.364-0.115
		c-0.104-0.076-0.155-0.164-0.155-0.265v-2.942c0-0.101,0.052-0.191,0.155-0.271C10.844,12.552,10.963,12.512,11.1,12.512z
		 M11.643,6.859c-0.03-0.068-0.054-0.14-0.062-0.21c-0.01-0.071-0.021-0.142-0.04-0.209c-0.016-0.085-0.024-0.199-0.024-0.344V5.54
		V2.055h1.09v4.03c0,0.103,0.037,0.189,0.113,0.267c0.079,0.075,0.178,0.114,0.305,0.114c0.119,0,0.22-0.039,0.304-0.114
		c0.086-0.077,0.13-0.164,0.13-0.267v-4.03h1.011v5.172h-1.29l0.023-0.418c-0.119,0.168-0.231,0.3-0.342,0.392
		c-0.135,0.084-0.282,0.127-0.444,0.127c-0.193,0-0.355-0.043-0.482-0.127C11.824,7.126,11.727,7.011,11.643,6.859z M16.181,15.302
		h-0.873v0.126v0.443c0,0.136-0.049,0.24-0.146,0.316c-0.097,0.077-0.213,0.113-0.347,0.113h-0.181
		c-0.134,0-0.244-0.036-0.334-0.113c-0.089-0.076-0.135-0.181-0.135-0.316v-0.05v-0.495v-0.66h2.016v-0.697
		c0-0.261-0.004-0.513-0.013-0.753c-0.008-0.242-0.028-0.43-0.062-0.563c-0.034-0.23-0.136-0.414-0.312-0.553
		c-0.172-0.139-0.374-0.234-0.607-0.284c-0.232-0.053-0.469-0.061-0.711-0.026c-0.24,0.034-0.447,0.113-0.628,0.24
		c-0.226,0.152-0.39,0.36-0.493,0.623c-0.102,0.26-0.152,0.624-0.152,1.09v1.56c0,0.657,0.175,1.128,0.521,1.406
		c0.32,0.261,0.657,0.393,1.012,0.393c0.035,0,0.068,0,0.104,0c0.398-0.024,0.748-0.194,1.053-0.507
		c0.228-0.228,0.342-0.529,0.342-0.899C16.222,15.576,16.208,15.444,16.181,15.302z M15.281,13.816h-1.115l0.025-0.619
		c0-0.136,0.051-0.246,0.152-0.337c0.102-0.089,0.223-0.134,0.369-0.134h0.051c0.15,0,0.279,0.043,0.386,0.127
		c0.104,0.085,0.159,0.199,0.159,0.344L15.281,13.816z"/>
	<g>
	</g>
	<g>
	</g>
	<g>
	</g>
	<g>
	</g>
	<g>
	</g>
	<g>
	</g>
	<g>
	</g>
	<g>
	</g>
	<g>
	</g>
	<g>
	</g>
	<g>
	</g>
	<g>
	</g>
	<g>
	</g>
	<g>
	</g>
	<g>
	</g>
</g>
<g>
</g>
<g>
</g>
<g>
</g>
<g>
</g>
<g>
</g>
<g>
</g>
<g>
</g>
<g>
</g>
<g>
</g>
<g>
</g>
<g>
</g>
<g>
</g>
<g>
</g>
<g>
</g>
<g>
</g>
</svg>
