<?xml version="1.0" encoding="iso-8859-1"?>
<!-- Generator: Adobe Illustrator 18.1.1, SVG Export Plug-In . SVG Version: 6.00 Build 0)  -->
<svg version="1.1" id="Capa_1" xmlns="http://www.w3.org/2000/svg" xmlns:xlink="http://www.w3.org/1999/xlink" x="0px" y="0px"
	 viewBox="0 0 16 16" style="enable-background:new 0 0 16 16;" xml:space="preserve">
<g>
	<g>
		<path style="fill:#090509;" d="M15.239,9.03c0.045-0.325,0.07-0.656,0.07-0.992c0-4.036-3.291-7.309-7.349-7.309
			c-0.403,0-0.799,0.033-1.183,0.096c-0.69-0.45-1.511-0.711-2.394-0.711C1.961,0.114,0,2.078,0,4.499
			c0,0.881,0.259,1.7,0.706,2.387c-0.06,0.376-0.091,0.76-0.091,1.152c0,4.037,3.288,7.309,7.346,7.309
			c0.458,0,0.904-0.045,1.337-0.123c0.673,0.418,1.468,0.661,2.317,0.661c2.423,0,4.385-1.963,4.385-4.385
			C16.001,10.585,15.722,9.733,15.239,9.03z M8.649,13.424c-2.335,0.122-3.427-0.396-4.428-1.334
			c-1.118-1.049-0.669-2.245,0.242-2.306c0.91-0.061,1.456,1.031,1.942,1.335c0.485,0.303,2.331,0.993,3.306-0.122
			c1.062-1.213-0.706-1.841-2.002-2.031c-1.85-0.273-4.186-1.274-4.004-3.247c0.182-1.97,1.674-2.982,3.245-3.124
			c2.002-0.182,3.306,0.303,4.337,1.183c1.192,1.017,0.547,2.153-0.212,2.244C10.317,6.113,9.469,4.35,7.8,4.324
			C6.08,4.297,4.918,6.114,7.041,6.63c2.124,0.516,4.397,0.728,5.218,2.669C13.079,11.24,10.985,13.302,8.649,13.424z"/>
	</g>
</g>
<g>
</g>
<g>
</g>
<g>
</g>
<g>
</g>
<g>
</g>
<g>
</g>
<g>
</g>
<g>
</g>
<g>
</g>
<g>
</g>
<g>
</g>
<g>
</g>
<g>
</g>
<g>
</g>
<g>
</g>
</svg>
