<?xml version="1.0" encoding="iso-8859-1"?>
<!-- Generator: Adobe Illustrator 18.1.1, SVG Export Plug-In . SVG Version: 6.00 Build 0)  -->
<svg version="1.1" id="Capa_1" xmlns="http://www.w3.org/2000/svg" xmlns:xlink="http://www.w3.org/1999/xlink" x="0px" y="0px"
	 viewBox="0 0 16.017 16.017" style="enable-background:new 0 0 16.017 16.017;" xml:space="preserve">
<g>
	<g>
		<g>
			<path style="fill:#010002;" d="M0.439,13.456c-0.586,0.586-0.586,1.535,0,2.121c0.293,0.293,0.677,0.439,1.061,0.439
				s0.768-0.146,1.061-0.439l4.925-4.926l-2.122-2.12L0.439,13.456z"/>
			<polygon style="fill:#010002;" points="12.748,4.328 14.893,3.219 16.016,1.048 14.969,0.001 12.799,1.125 11.688,3.268 
				9.079,5.88 10.137,6.94 			"/>
			<path style="fill:#010002;" d="M13.218,10.021l-0.202-0.02c-0.366,0-0.713,0.075-1.037,0.195L5.822,4.038
				c0.12-0.324,0.195-0.671,0.195-1.037l-0.02-0.202c-0.106-1.561-1.392-2.798-2.98-2.798c-0.462,0-0.895,0.113-1.286,0.3
				l1.993,1.993c0.105,0.105,0.177,0.229,0.225,0.36c0.131,0.354,0.06,0.768-0.225,1.054C3.529,3.903,3.273,4.001,3.017,4.001
				c-0.118,0-0.235-0.026-0.347-0.068c-0.131-0.05-0.255-0.12-0.36-0.226L0.317,1.715c-0.187,0.391-0.3,0.824-0.3,1.286
				c0,1.588,1.237,2.874,2.798,2.98l0.202,0.02c0.366,0,0.713-0.075,1.037-0.194l6.156,6.157c-0.118,0.324-0.193,0.671-0.193,1.037
				l0.021,0.202c0.104,1.562,1.391,2.798,2.979,2.798c0.462,0,0.896-0.111,1.286-0.3l-1.993-1.993
				c-0.104-0.104-0.177-0.229-0.227-0.359c-0.131-0.354-0.06-0.769,0.227-1.055c0.193-0.195,0.451-0.293,0.707-0.293
				c0.118,0,0.234,0.025,0.348,0.068c0.131,0.049,0.256,0.119,0.359,0.225l1.993,1.993c0.188-0.392,0.3-0.824,0.3-1.286
				C16.016,11.413,14.779,10.127,13.218,10.021z"/>
		</g>
	</g>
</g>
<g>
</g>
<g>
</g>
<g>
</g>
<g>
</g>
<g>
</g>
<g>
</g>
<g>
</g>
<g>
</g>
<g>
</g>
<g>
</g>
<g>
</g>
<g>
</g>
<g>
</g>
<g>
</g>
<g>
</g>
</svg>
