/* XPM */
static char * yafra_logo_32x32_xpm[] = {
"32 32 988 2",
"  	c #40536C",
". 	c #598AC4",
"+ 	c #5D91CA",
"@ 	c #6198D6",
"# 	c #415C7E",
"$ 	c #5A8AC3",
"% 	c #5D90CB",
"& 	c #527DAE",
"* 	c #405F85",
"= 	c #5B90CB",
"- 	c #5484BC",
"; 	c #4E75A5",
"> 	c #5A90CF",
", 	c #5A8FCB",
"' 	c #567FAD",
") 	c #5584BC",
"! 	c #578DCA",
"~ 	c #6197CD",
"{ 	c #344B6C",
"] 	c #578AC8",
"^ 	c #5688C3",
"/ 	c #415F82",
"( 	c #578DCD",
"_ 	c #5486C3",
": 	c #5484BD",
"< 	c #496890",
"[ 	c #528AC7",
"} 	c #5386C3",
"| 	c #4972A7",
"1 	c #506A88",
"2 	c #385276",
"3 	c #5285C3",
"4 	c #5788C0",
"5 	c #45648E",
"6 	c #6098D4",
"7 	c #5C90C8",
"8 	c #5582B7",
"9 	c #5381B2",
"0 	c #5A8EC9",
"a 	c #6099DA",
"b 	c #324C6B",
"c 	c #5F97D8",
"d 	c #7298C4",
"e 	c #425161",
"f 	c #344257",
"g 	c #364666",
"h 	c #38475D",
"i 	c #2D3C52",
"j 	c #39495F",
"k 	c #445560",
"l 	c #47699B",
"m 	c #5A92D6",
"n 	c #5683BB",
"o 	c #4F79AD",
"p 	c #5487C3",
"q 	c #5384C2",
"r 	c #5D88B8",
"s 	c #4D7CB2",
"t 	c #5385C1",
"u 	c #5285C1",
"v 	c #5180BB",
"w 	c #486997",
"x 	c #3F628E",
"y 	c #4C7BB6",
"z 	c #5F95D1",
"A 	c #426283",
"B 	c #4F78AC",
"C 	c #5D92CF",
"D 	c #5B8CC5",
"E 	c #405C86",
"F 	c #5E91CB",
"G 	c #5883B6",
"H 	c #68809E",
"I 	c #3F4D5F",
"J 	c #41628E",
"K 	c #354768",
"L 	c #64A9F1",
"M 	c #5C98D9",
"N 	c #5C88B8",
"O 	c #588ECD",
"P 	c #5E99DE",
"Q 	c #3E516F",
"R 	c #436792",
"S 	c #3B4F63",
"T 	c #486585",
"U 	c #4973A2",
"V 	c #527FB8",
"W 	c #588FCF",
"X 	c #4C5F78",
"Y 	c #5287C4",
"Z 	c #5185C2",
"` 	c #5485C3",
" .	c #587191",
"..	c #4C80BB",
"+.	c #4F82C4",
"@.	c #385475",
"#.	c #5D91CC",
"$.	c #5E96D3",
"%.	c #4B6D98",
"&.	c #5386C0",
"*.	c #6094D4",
"=.	c #485862",
"-.	c #415A7B",
";.	c #5B8CBF",
">.	c #4A75A5",
",.	c #527FB7",
"'.	c #5C92D1",
").	c #334561",
"!.	c #649DDC",
"~.	c #5689C7",
"{.	c #5980AD",
"].	c #5282B9",
"^.	c #568CC7",
"/.	c #415C7A",
"(.	c #5892D4",
"_.	c #5489CF",
":.	c #526C87",
"<.	c #4977AB",
"[.	c #446693",
"}.	c #333C46",
"|.	c #5995DC",
"1.	c #5286C1",
"2.	c #4A607B",
"3.	c #4C81C1",
"4.	c #4F83C3",
"5.	c #5989C3",
"6.	c #5789BF",
"7.	c #5D91CE",
"8.	c #5588BF",
"9.	c #486993",
"0.	c #5E799B",
"a.	c #5F92D2",
"b.	c #395272",
"c.	c #598BC7",
"d.	c #5684BD",
"e.	c #4F77AA",
"f.	c #5A8ECC",
"g.	c #455F7E",
"h.	c #4E7DB9",
"i.	c #558BC9",
"j.	c #5B80AB",
"k.	c #5181BA",
"l.	c #5383BC",
"m.	c #466A95",
"n.	c #568ACA",
"o.	c #5F93CE",
"p.	c #364D67",
"q.	c #578BC9",
"r.	c #4E6F98",
"s.	c #2D4056",
"t.	c #4877AD",
"u.	c #577EAE",
"v.	c #4E7DB5",
"w.	c #5183C2",
"x.	c #4D82C4",
"y.	c #5484BF",
"z.	c #4B617E",
"A.	c #44678D",
"B.	c #558AC7",
"C.	c #648EBC",
"D.	c #4A6888",
"E.	c #3A5781",
"F.	c #5D93D0",
"G.	c #527EAE",
"H.	c #527FB4",
"I.	c #5A8DC9",
"J.	c #3D5576",
"K.	c #5C96D6",
"L.	c #5B82B3",
"M.	c #416692",
"N.	c #558BCD",
"O.	c #587FAA",
"P.	c #5082BB",
"Q.	c #5281B7",
"R.	c #4E78AC",
"S.	c #5489C9",
"T.	c #42586F",
"U.	c #5687CA",
"V.	c #5184C7",
"W.	c #5E85B2",
"X.	c #4D7CB3",
"Y.	c #5286C3",
"Z.	c #5A7EAA",
"`.	c #2C3743",
" +	c #5185C5",
".+	c #4E80C2",
"++	c #6198D9",
"@+	c #44556D",
"#+	c #4D80BE",
"$+	c #5488BE",
"%+	c #527092",
"&+	c #3F5877",
"*+	c #6299DC",
"=+	c #415E83",
"-+	c #5788C3",
";+	c #5487BE",
">+	c #466E97",
",+	c #5F94D7",
"'+	c #364A63",
")+	c #5A89C5",
"!+	c #6089BD",
"~+	c #2D415B",
"{+	c #587EAE",
"]+	c #5C7692",
"^+	c #4C70A2",
"/+	c #5074A0",
"(+	c #486D9B",
"_+	c #5482B7",
":+	c #456286",
"<+	c #558FD4",
"[+	c #578BCB",
"}+	c #4A5F74",
"|+	c #5288C6",
"1+	c #5487C2",
"2+	c #3D5064",
"3+	c #538ACD",
"4+	c #3F5E89",
"5+	c #5485BE",
"6+	c #485A6F",
"7+	c #5289D1",
"8+	c #4E81C1",
"9+	c #5887BD",
"0+	c #4C6E9B",
"a+	c #384F72",
"b+	c #5C93CF",
"c+	c #5684BC",
"d+	c #5173A5",
"e+	c #5791CE",
"f+	c #566E96",
"g+	c #41607D",
"h+	c #5A7BA5",
"i+	c #2D3D56",
"j+	c #5B8FCC",
"k+	c #405068",
"l+	c #5083C3",
"m+	c #517198",
"n+	c #4A78B0",
"o+	c #4C74A3",
"p+	c #4C73A2",
"q+	c #4D74A5",
"r+	c #37455A",
"s+	c #415F7F",
"t+	c #455E7B",
"u+	c #5186C8",
"v+	c #4D82C6",
"w+	c #5979A0",
"x+	c #4D7CB5",
"y+	c #6595CD",
"z+	c #313844",
"A+	c #5081BC",
"B+	c #4E81C2",
"C+	c #4B81C4",
"D+	c #516E90",
"E+	c #5A8BC5",
"F+	c #517FB3",
"G+	c #4F75A8",
"H+	c #5E95D6",
"I+	c #324E69",
"J+	c #5982B6",
"K+	c #4A667B",
"L+	c #354C6F",
"M+	c #5E9ADE",
"N+	c #3A5474",
"O+	c #5690D5",
"P+	c #3E5770",
"Q+	c #5288CB",
"R+	c #53729B",
"S+	c #4E82C0",
"T+	c #567AAC",
"U+	c #507FBB",
"V+	c #507BAD",
"W+	c #5187C6",
"X+	c #4A72A3",
"Y+	c #354A64",
"Z+	c #4C79B0",
"`+	c #658CBF",
" @	c #425F81",
".@	c #5286C9",
"+@	c #5388C2",
"@@	c #46586E",
"#@	c #3D6490",
"$@	c #5385C6",
"%@	c #5B789F",
"&@	c #425E7D",
"*@	c #568AC4",
"=@	c #5C8FCB",
"-@	c #3E5D7E",
";@	c #517BB0",
">@	c #4A6382",
",@	c #3B5674",
"'@	c #588DCB",
")@	c #466D98",
"!@	c #5383BD",
"~@	c #4F77A6",
"{@	c #5283BE",
"]@	c #52779C",
"^@	c #5087C5",
"/@	c #4E6C91",
"(@	c #4F85C4",
"_@	c #536F94",
":@	c #4F84C4",
"<@	c #4E6E8E",
"[@	c #4D80BF",
"}@	c #5D85B5",
"|@	c #4B79AE",
"1@	c #4C719F",
"2@	c #303A48",
"3@	c #5898E0",
"4@	c #5A94D8",
"5@	c #4B5C6E",
"6@	c #4F80C0",
"7@	c #4D81C3",
"8@	c #5F7DA6",
"9@	c #334A65",
"0@	c #4B7BB6",
"a@	c #3F597C",
"b@	c #5485BD",
"c@	c #68A1E9",
"d@	c #2B3844",
"e@	c #5486BE",
"f@	c #517CB5",
"g@	c #4E7AAF",
"h@	c #517DB5",
"i@	c #4E7AB1",
"j@	c #4E7FB4",
"k@	c #4C7BB1",
"l@	c #50729E",
"m@	c #4A79B2",
"n@	c #4A6380",
"o@	c #4A80BE",
"p@	c #445771",
"q@	c #5991D1",
"r@	c #4A5E78",
"s@	c #5A90D1",
"t@	c #495D75",
"u@	c #5489CE",
"v@	c #52749B",
"w@	c #4976A6",
"x@	c #364764",
"y@	c #495E74",
"z@	c #4F86CB",
"A@	c #4F86C7",
"B@	c #537CAE",
"C@	c #3B597A",
"D@	c #3E587A",
"E@	c #4C7FBD",
"F@	c #6096D1",
"G@	c #5B8ECA",
"H@	c #4A71A1",
"I@	c #3D5168",
"J@	c #5680BB",
"K@	c #314A69",
"L@	c #669FE4",
"M@	c #283D5A",
"N@	c #649BE0",
"O@	c #496A95",
"P@	c #49586B",
"Q@	c #3C5677",
"R@	c #5174A0",
"S@	c #4C76A8",
"T@	c #3B536E",
"U@	c #5B84B5",
"V@	c #28394C",
"W@	c #3C4C58",
"X@	c #405C81",
"Y@	c #4A607C",
"Z@	c #5288CA",
"`@	c #4E6784",
" #	c #5177B0",
".#	c #4F8DD8",
"+#	c #516371",
"@#	c #364C65",
"##	c #5492DB",
"$#	c #5082C1",
"%#	c #4677B6",
"&#	c #485F79",
"*#	c #3E5876",
"=#	c #5989BF",
"-#	c #384A63",
";#	c #5084B8",
">#	c #5985BC",
",#	c #335275",
"'#	c #5A85B7",
")#	c #3F5169",
"!#	c #303640",
"~#	c #5182BE",
"{#	c #496FA3",
"]#	c #4D7CB1",
"^#	c #5084C3",
"/#	c #435D77",
"(#	c #587DA5",
"_#	c #446B9E",
":#	c #3E5679",
"<#	c #4774A8",
"[#	c #344862",
"}#	c #4C78AB",
"|#	c #4E6F9F",
"1#	c #4E8AC8",
"2#	c #5F7488",
"3#	c #4678BB",
"4#	c #456B94",
"5#	c #445264",
"6#	c #4F7EBB",
"7#	c #4D7EB5",
"8#	c #5B7399",
"9#	c #3F5A7C",
"0#	c #598FCC",
"a#	c #5883B9",
"b#	c #3D556F",
"c#	c #5588C5",
"d#	c #476E9B",
"e#	c #4C76AB",
"f#	c #4D698B",
"g#	c #426590",
"h#	c #5987C3",
"i#	c #2D4466",
"j#	c #2F4765",
"k#	c #5587C5",
"l#	c #497EBA",
"m#	c #496381",
"n#	c #445573",
"o#	c #5689C4",
"p#	c #4D78AC",
"q#	c #517DAF",
"r#	c #4678B4",
"s#	c #5B6778",
"t#	c #335276",
"u#	c #6B8AB0",
"v#	c #4877B0",
"w#	c #5474A0",
"x#	c #3E628E",
"y#	c #5D8FD0",
"z#	c #4A5B73",
"A#	c #4C73A7",
"B#	c #4A7DBD",
"C#	c #3A587A",
"D#	c #5C84B4",
"E#	c #5D94D0",
"F#	c #38506C",
"G#	c #4D6A91",
"H#	c #5687BF",
"I#	c #385070",
"J#	c #51749A",
"K#	c #304463",
"L#	c #4D80B5",
"M#	c #4778AA",
"N#	c #4F709B",
"O#	c #364B62",
"P#	c #5981B4",
"Q#	c #4671A4",
"R#	c #465A70",
"S#	c #344A63",
"T#	c #4E7EB5",
"U#	c #5E7699",
"V#	c #6086AE",
"W#	c #375A88",
"X#	c #4C6687",
"Y#	c #2B4664",
"Z#	c #5581B5",
"`#	c #516885",
" $	c #4B80BD",
".$	c #4E77A6",
"+$	c #354053",
"@$	c #4B85C6",
"#$	c #5086C8",
"$$	c #4B7EB7",
"%$	c #446895",
"&$	c #5787BF",
"*$	c #5379A5",
"=$	c #374659",
"-$	c #5691CC",
";$	c #4E72A2",
">$	c #526E8F",
",$	c #384A69",
"'$	c #4E82BC",
")$	c #3A5375",
"!$	c #3D5C80",
"~$	c #324257",
"{$	c #38526F",
"]$	c #3D587F",
"^$	c #5381B5",
"/$	c #172B41",
"($	c #405F8A",
"_$	c #53769A",
":$	c #43576A",
"<$	c #3B4B62",
"[$	c #4F749E",
"}$	c #5C88C1",
"|$	c #4473A9",
"1$	c #5F789A",
"2$	c #476A93",
"3$	c #4C82BB",
"4$	c #4D6786",
"5$	c #4C7AB4",
"6$	c #324563",
"7$	c #5794D6",
"8$	c #405770",
"9$	c #4F74A8",
"0$	c #4C78B1",
"a$	c #5A89BC",
"b$	c #6493C7",
"c$	c #354864",
"d$	c #5A789E",
"e$	c #5788C1",
"f$	c #323F52",
"g$	c #5989C0",
"h$	c #3F5A7E",
"i$	c #4C79AA",
"j$	c #27313D",
"k$	c #3C6494",
"l$	c #5581BB",
"m$	c #2A4162",
"n$	c #5582B9",
"o$	c #223852",
"p$	c #4A7FBD",
"q$	c #4C637B",
"r$	c #3F5679",
"s$	c #5479A6",
"t$	c #3F6087",
"u$	c #566B80",
"v$	c #6486AF",
"w$	c #38567A",
"x$	c #43576C",
"y$	c #536C8E",
"z$	c #445A71",
"A$	c #415773",
"B$	c #4E84CD",
"C$	c #4B84C4",
"D$	c #487AB5",
"E$	c #5A87C0",
"F$	c #577CA7",
"G$	c #3E4858",
"H$	c #5E8FCB",
"I$	c #4C76A7",
"J$	c #566780",
"K$	c #4E7DB2",
"L$	c #5982B1",
"M$	c #202931",
"N$	c #43689B",
"O$	c #375476",
"P$	c #3F5066",
"Q$	c #232835",
"R$	c #314865",
"S$	c #293B52",
"T$	c #304254",
"U$	c #283744",
"V$	c #72A1D4",
"W$	c #405067",
"X$	c #4C6E96",
"Y$	c #3A4D64",
"Z$	c #5E8FC7",
"`$	c #47586F",
" %	c #39618F",
".%	c #516683",
"+%	c #49678B",
"@%	c #4679B2",
"#%	c #436D99",
"$%	c #4B6F9F",
"%%	c #4F6B8C",
"&%	c #354A69",
"*%	c #4A71A2",
"=%	c #618EC6",
"-%	c #669AD6",
";%	c #2B405B",
">%	c #597496",
",%	c #6C8CB2",
"'%	c #3D618E",
")%	c #69819E",
"!%	c #3A4856",
"~%	c #446894",
"{%	c #253850",
"]%	c #505E6E",
"^%	c #456C9E",
"/%	c #2E4665",
"(%	c #426286",
"_%	c #335B8D",
":%	c #294362",
"<%	c #436793",
"[%	c #24272A",
"}%	c #5881AF",
"|%	c #5D7FA4",
"1%	c #485261",
"2%	c #3F4E5E",
"3%	c #5688C4",
"4%	c #6682A6",
"5%	c #213647",
"6%	c #5083C2",
"7%	c #597195",
"8%	c #2C3B4A",
"9%	c #487BBC",
"0%	c #4E8BD2",
"a%	c #4C80C3",
"b%	c #5784BD",
"c%	c #6492C9",
"d%	c #39485A",
"e%	c #687993",
"f%	c #718BB1",
"g%	c #5178A8",
"h%	c #5F7790",
"i%	c #282E34",
"j%	c #566B8D",
"k%	c #314558",
"l%	c #3F5B81",
"m%	c #505764",
"n%	c #3A4450",
"o%	c #25272E",
"p%	c #37495B",
"q%	c #202426",
"r%	c #6587B6",
"s%	c #273037",
"t%	c #7590AC",
"u%	c #3A5679",
"v%	c #415871",
"w%	c #5586C2",
"x%	c #435A78",
"y%	c #3B495A",
"z%	c #4977AE",
"A%	c #4B81C3",
"B%	c #406C9E",
"C%	c #4D73A3",
"D%	c #476B9C",
"E%	c #455C79",
"F%	c #435265",
"G%	c #588BC3",
"H%	c #547BAD",
"I%	c #5487C5",
"J%	c #4A709B",
"K%	c #5C667B",
"L%	c #608CC1",
"M%	c #546C91",
"N%	c #223441",
"O%	c #37445D",
"P%	c #3E4347",
"Q%	c #34587D",
"R%	c #5891D3",
"S%	c #4F85C5",
"T%	c #5182C1",
"U%	c #252F36",
"V%	c #3B4551",
"W%	c #6A88A4",
"X%	c #242E3D",
"Y%	c #6782A5",
"Z%	c #485874",
"`%	c #465D71",
" &	c #4B7EBE",
".&	c #3D4F63",
"+&	c #527AAD",
"@&	c #415F7E",
"#&	c #3D4049",
"$&	c #3C587E",
"%&	c #3E6C9F",
"&&	c #5088D1",
"*&	c #3A587F",
"=&	c #3B506B",
"-&	c #5E8AC2",
";&	c #5A80AF",
">&	c #526E9A",
",&	c #557AA7",
"'&	c #2C3844",
")&	c #889DB5",
"!&	c #404954",
"~&	c #27323A",
"{&	c #292823",
"]&	c #5186C5",
"^&	c #5288C9",
"/&	c #5187C7",
"(&	c #4F86C6",
"_&	c #4E85C6",
":&	c #5086C6",
"<&	c #4E85C4",
"[&	c #3E5471",
"}&	c #393C42",
"|&	c #454D56",
"1&	c #446080",
"2&	c #364451",
"3&	c #4970A1",
"4&	c #4E79AB",
"5&	c #3F5C84",
"6&	c #5585C3",
"7&	c #5882BB",
"8&	c #43566C",
"9&	c #4D76AF",
"0&	c #476B97",
"a&	c #4A6B94",
"b&	c #435D81",
"c&	c #527CAE",
"d&	c #527DB5",
"e&	c #598AC6",
"f&	c #394C67",
"g&	c #6A9BD1",
"h&	c #2B3D55",
"i&	c #3A4B60",
"j&	c #454B52",
"k&	c #486A9A",
"l&	c #4E86C7",
"m&	c #5186C6",
"n&	c #5085C6",
"o&	c #4E85C5",
"p&	c #4D84C5",
"q&	c #4E83C5",
"r&	c #4D87CE",
"s&	c #535B62",
"t&	c #484B4B",
"u&	c #475262",
"v&	c #415971",
"w&	c #4A6A93",
"x&	c #474C54",
"y&	c #364E68",
"z&	c #365477",
"A&	c #355678",
"B&	c #3C5F89",
"C&	c #416B9D",
"D&	c #406EA4",
"E&	c #3F628D",
"F&	c #3C6290",
"G&	c #537BB0",
"H&	c #3E4B5F",
"I&	c #6094D2",
"J&	c #5282BA",
"K&	c #415E81",
"L&	c #4F7CB4",
"M&	c #4270A0",
"N&	c #527EB4",
"O&	c #444F58",
"P&	c #466694",
"Q&	c #4C87C6",
"R&	c #4D85C5",
"S&	c #4D84C6",
"T&	c #4E85C9",
"U&	c #4C6684",
"V&	c #2D2F26",
"W&	c #424A5B",
"X&	c #405A7B",
"Y&	c #345276",
"Z&	c #324B6A",
"`&	c #3F648D",
" *	c #334F71",
".*	c #4B5663",
"+*	c #405671",
"@*	c #3F6290",
"#*	c #578ACA",
"$*	c #3E5A80",
"%*	c #4A84CB",
"&*	c #538DCF",
"**	c #5995D9",
"=*	c #374B68",
"-*	c #5B8BC7",
";*	c #507CAA",
">*	c #587292",
",*	c #67768E",
"'*	c #445161",
")*	c #3C4451",
"!*	c #1E252E",
"~*	c #6B91C7",
"{*	c #5087C7",
"]*	c #4E84C7",
"^*	c #4F85C7",
"/*	c #4E84C5",
"(*	c #4B83C4",
"_*	c #4D83C8",
":*	c #5A728D",
"<*	c #36393D",
"[*	c #4D5E76",
"}*	c #314E71",
"|*	c #5F7796",
"1*	c #4775A7",
"2*	c #487BB6",
"3*	c #506A90",
"4*	c #4071A5",
"5*	c #528DD4",
"6*	c #3E6BA1",
"7*	c #424F5B",
"8*	c #364E70",
"9*	c #3C5B83",
"0*	c #5C94D8",
"a*	c #617997",
"b*	c #496A90",
"c*	c #2D3B50",
"d*	c #5F94D8",
"e*	c #4F7EB8",
"f*	c #426A98",
"g*	c #556B88",
"h*	c #486990",
"i*	c #33383C",
"j*	c #293649",
"k*	c #8096B5",
"l*	c #72A2DC",
"m*	c #4D87CB",
"n*	c #4680C6",
"o*	c #4B87CC",
"p*	c #5B8FCD",
"q*	c #8CA4C2",
"r*	c #43403B",
"s*	c #3B5E86",
"t*	c #5778A0",
"u*	c #36424E",
"v*	c #344E72",
"w*	c #4885CC",
"x*	c #54667C",
"y*	c #3F699B",
"z*	c #456892",
"A*	c #2C4667",
"B*	c #637EA2",
"C*	c #487FBD",
"D*	c #4981C4",
"E*	c #467BBB",
"F*	c #344453",
"G*	c #4F81C1",
"H*	c #588ED5",
"I*	c #5D96DA",
"J*	c #324965",
"K*	c #4E79AA",
"L*	c #5F799A",
"M*	c #354E6E",
"N*	c #4F79B4",
"O*	c #496586",
"P*	c #272F35",
"Q*	c #4E545B",
"R*	c #6F727C",
"S*	c #46556D",
"T*	c #899DB4",
"U*	c #616674",
"V*	c #646669",
"W*	c #51514C",
"X*	c #3B5068",
"Y*	c #425266",
"Z*	c #4D76A5",
"`*	c #49515A",
" =	c #385F92",
".=	c #467AB8",
"+=	c #5185C9",
"@=	c #47658C",
"#=	c #395A86",
"$=	c #395378",
"%=	c #4572A9",
"&=	c #4676B0",
"*=	c #5188C9",
"==	c #3B5677",
"-=	c #4775B1",
";=	c #618EC3",
">=	c #496684",
",=	c #4B72A2",
"'=	c #324C6D",
")=	c #5997E1",
"!=	c #3F586C",
"~=	c #486E9F",
"{=	c #38465D",
"]=	c #394E67",
"^=	c #424B51",
"/=	c #313A44",
"(=	c #3E393C",
"_=	c #302E2D",
":=	c #3F4F5F",
"<=	c #426595",
"[=	c #3E70A6",
"}=	c #3C6292",
"|=	c #7396C1",
"1=	c #425B77",
"2=	c #374C66",
"3=	c #374C68",
"4=	c #405269",
"5=	c #477DBE",
"6=	c #4980C3",
"7=	c #4A7EC1",
"8=	c #4576B5",
"9=	c #496488",
"0=	c #5289CA",
"a=	c #5791D8",
"b=	c #465F78",
"c=	c #548BD4",
"d=	c #3C4953",
"e=	c #43679E",
"f=	c #4A7DBC",
"g=	c #5083B8",
"h=	c #416089",
"i=	c #425A78",
"j=	c #3F556E",
"k=	c #4A7297",
"l=	c #426388",
"m=	c #5382BF",
"n=	c #354A68",
"o=	c #6580A0",
"p=	c #3A4E67",
"q=	c #2A4668",
"r=	c #4E8BD1",
"s=	c #4E7BB6",
"t=	c #39577E",
"u=	c #597599",
"v=	c #4C74AA",
"w=	c #4882C8",
"x=	c #374D6C",
"y=	c #4575AF",
"z=	c #4A78B3",
"A=	c #597497",
"B=	c #4579BB",
"C=	c #578ECC",
"D=	c #507199",
"E=	c #4E81BF",
"F=	c #4E7EBA",
"G=	c #446994",
"H=	c #4B79B3",
"I=	c #5B7CA5",
"J=	c #4F81BE",
"K=	c #497DB9",
"L=	c #5782BF",
"M=	c #323E4A",
"N=	c #3D5A77",
"O=	c #486F9C",
"P=	c #497BBA",
"Q=	c #4986CC",
"R=	c #304762",
"S=	c #4C8ED9",
"T=	c #4683CC",
"U=	c #345072",
"V=	c #6AA3E5",
"W=	c #506C8B",
"X=	c #3D4B60",
"Y=	c #4772A3",
"Z=	c #4C79B3",
"`=	c #3B6290",
" -	c #4578B5",
".-	c #467CBE",
"+-	c #5E99E3",
"@-	c #49586D",
"#-	c #3C5069",
"$-	c #3B629A",
"%-	c #4680C5",
"&-	c #3D4A60",
"*-	c #4C7CB7",
"=-	c #5187CA",
"--	c #5088C9",
";-	c #518CCD",
">-	c #415770",
",-	c #2E486B",
"'-	c #4A79B4",
")-	c #4F81BF",
"!-	c #3B5A6E",
"~-	c #5892E4",
"{-	c #568ED6",
"]-	c #3C628B",
"^-	c #374B61",
"/-	c #4E637E",
"(-	c #3D4859",
"_-	c #485C7A",
":-	c #556D8A",
"<-	c #3C4E61",
"[-	c #354E6F",
"}-	c #4374B2",
"|-	c #385C89",
"1-	c #4775AF",
"2-	c #467FC2",
"3-	c #384B63",
"4-	c #4D75A7",
"5-	c #405573",
"6-	c #4A85CD",
"7-	c #4884CE",
"8-	c #3D6894",
"9-	c #3C6799",
"0-	c #5085C4",
"a-	c #4B7CB4",
"b-	c #3D5E85",
"c-	c #4B81BE",
"d-	c #527BAE",
"e-	c #4C7CB5",
"f-	c #4A7CB6",
"g-	c #4972A2",
"h-	c #446893",
"i-	c #4C82C1",
"j-	c #4976AF",
"k-	c #4C7FBC",
"l-	c #4B84C8",
"m-	c #4C7DB6",
"n-	c #3C628F",
"o-	c #4B83C7",
"p-	c #467BB8",
"q-	c #4573AB",
"r-	c #4A81C3",
"s-	c #4981C5",
"t-	c #4B6E97",
"u-	c #516789",
"v-	c #446992",
"w-	c #4777AF",
"x-	c #446DA1",
"y-	c #40679B",
"z-	c #467EC3",
"A-	c #457CBE",
"B-	c #467DC2",
"C-	c #5274A0",
"  . + @ # $ % & * = - ; > , ' ) ! ~ { ] ^ / ( _ : < [ } | 1 2 3 ",
"4 5 6 7 8 9 0 a b c d e f g h i j k l m n o p q r s t u v w x y ",
"z A B C D E F G H I J K L M N O P Q R S T U V W X Y Z `  ...+.@.",
"#.$.%.&.*.=.-.;.>.,.'.).!.~.{.].^./.(._.:.<.[.}.|.1.} 2.3.4.+.5.",
"6.7.8.9.0.a.b.c.d.e.f.g.h.i.j.k.l.m.n.o.p.q.: r.s.t.u.v.w.x.y.z.",
"A.B.C.D.E.F.G.H.I.J.K.L.M.N.O.P.Q.R.S.T.U.V.W.X.Y.Z.`. +.+++@+#+",
"$+%+&+*+=+-+;+>+,+'+)+!+~+{+]+^+/+(+_+:+<+[+}+|+1+2+3+4+5+6+7+8+",
"9+0+a+b+c+d+e+f+g+h+i+j+k+l+m+n+o+p+q+r+s+t+u+v+w+x++.y+z+A+B+C+",
"D+E+F+G+H+I+J+K+L+M+N+O+P+Q+R+S+T+U+V+W+X+Y+Z+`+ @.@+@@@h.#@$@%@",
"&@*@=@-@;@>@,@'@)@!@~@{@]@^@/@(@_@:@<@[@}@|@1@2@3@4@5@6@7@8@9@0@",
", a@b@c@d@e@f@g@h@i@j@k@l@m@n@o@p@q@r@s@t@u@v@w@x@y@z@A@B@C@D@E@",
"F@G@H@I@J@K@L@M@N@O@P@Q@R@S@T@U@V@W@X@Y@Z@`@ #.#+#@###X Z+$#%#&#",
"*#8 =#-#;#>#,#'#)#!#~#{#]#^#/#(#_#:#<#[#}#|#1#2#3#4#5#6#x.7#8#9#",
"0#a#b#c#d#- e#f#g#h#i#j#k#l#m#n#o#p#q#r#s#t#u#v#{@w#x#y#z#A#B#C#",
"D#E#F#G#H#I#J#K#L#M#N#O#P#Q#R#S#& T#U#V#W#X#Y#Z#`# $.$+$@$#$$$%$",
"&$*$=$-$;$>$,$'$)$!$~${$]$^$/$($_$:$<$[$}$|$1$2$3$4$5$6$7$8$9$0$",
"a$b$c$d$e$f$g$h$i$j$k$l$m$n$o$p$q$r$s$t$u$v$w$x$y$o@F+z$A$B$C$D$",
"E$F$G$H$I$J$K$L$M$N$O$P$Q$R$S$T$U$V$W$X$Y$Z$`$ %.%+%@%#%$%%%&%*%",
"=%-%;%>%,%'%)%!%~%{%]%^%/%(%_%:%<%[%}%|%1%2%3%4%5%6%S@7%8%9%0%a%",
"b%c%d%e%f%g%h%i%j%k%l%m%n%o%p%q%,#r%s%t%u%v%w%x%y%z%A%B%C%D%E%F%",
"}$G%H%I%J%K%L%M%N%O%P%Q%A+R%S%T%U%V%W%X%Y%Z%`% &.&+&@&#&$&%&&&*&",
"=&-&;&>&,&'&)&!&~&{&]&^&/&(&_&:&<&[&}&|&1&2&3&4&5&6&7&8&9&0&a&b&",
"c&d&e&f&D g&h&i&j&k&l&m&n&(&o&p&q&r&s&t&u&v&w&x&y&z&A&B&C&D&E&F&",
"G&H&I&J&K&L&M&N&O&P&Q&A@R&A@p&o&S&T&U&V&W&X&Y&Z&`& *.*+*@*#*$*%*",
"&***=*-*;*>*,*'*)*!*~*{*]*^*/*p&(*_*:*<*[*}*|*1*2*3*4*5*6*7*8*9*",
"0*a*b*c*d*e*f*g*h*i*j*k*l*m*n*o*p*q*r*s*t*u*v*w*x*y*z*A*B*C*D*E*",
"F*G*H*I*J*K*L*M*N*O*P*Q*R*S*T*U*V*W*X*Y*9@A%Z*`* =.=+=@=#=$=%=&=",
"*===-=;=>=,='=)=!=~={=]=^=/=(=_=:=<=[=}=|=1=2=3.E*3=4=5=6=7=8=9=",
"0=a=b=)$c={*#$d=e=f=g=h=i=j=k=l=m=n=o=p=q=r=s=t=u=v=w=x=y=z=A=B=",
"C=D=E=F=G=H=I=J=K=L=M=N=O=P=Q=R=S=T=U=V=W=X=Y=Z=`= -.-+-@-#-$-%-",
"&-*-=---;->-,-'-)-!-~-{-]-^-/-(-_-:-<-[-}-|-1-2-A@3-4-5-6-7-8-9-",
"0-a-b-c-d-e-T&f-g-3=h-i-j-k-l-m-n-o-p-q-r-s-t-u-v-w-x-y-z-A-B-C-"};
