/* XPM */
static char * yafra_logo_16x16_xpm[] = {
"16 16 253 2",
"  	c #4C6F9C",
". 	c #6199D5",
"+ 	c #4F78A7",
"@ 	c #5C91CD",
"# 	c #4771A3",
"$ 	c #587AA1",
"% 	c #44648E",
"& 	c #415B7D",
"* 	c #4E7092",
"= 	c #4A75AD",
"- 	c #4E77A9",
"; 	c #5489C8",
"> 	c #527BAC",
", 	c #5388C6",
"' 	c #4C71A0",
") 	c #446C9E",
"! 	c #5789BE",
"~ 	c #517DB2",
"{ 	c #4F719A",
"] 	c #5580B2",
"^ 	c #516D8F",
"/ 	c #3B5881",
"( 	c #65A7EF",
"_ 	c #5989BE",
": 	c #4D74A4",
"< 	c #4974A7",
"[ 	c #4B6E93",
"} 	c #466791",
"| 	c #5484BC",
"1 	c #4F7AAE",
"2 	c #507DB4",
"3 	c #4C79B2",
"4 	c #5282B8",
"5 	c #5379A3",
"6 	c #5781B6",
"7 	c #4B73A2",
"8 	c #4E75A6",
"9 	c #5784B8",
"0 	c #4D7FBC",
"a 	c #4E78AC",
"b 	c #5481B6",
"c 	c #4B77B0",
"d 	c #5682B5",
"e 	c #476D9B",
"f 	c #476A95",
"g 	c #548BCF",
"h 	c #4A6990",
"i 	c #547DAC",
"j 	c #4C74A6",
"k 	c #4F74A5",
"l 	c #517DAF",
"m 	c #4C6E96",
"n 	c #527BAE",
"o 	c #425E85",
"p 	c #50719B",
"q 	c #4B709C",
"r 	c #466388",
"s 	c #4D78AA",
"t 	c #4C7AB2",
"u 	c #4D6F96",
"v 	c #5587C7",
"w 	c #445F7E",
"x 	c #4E86CE",
"y 	c #5178A5",
"z 	c #4C73A2",
"A 	c #4B719E",
"B 	c #4E749D",
"C 	c #4A76AB",
"D 	c #4C77AC",
"E 	c #4C77A6",
"F 	c #4F79AC",
"G 	c #537BB1",
"H 	c #4F7EB3",
"I 	c #496D98",
"J 	c #4B6990",
"K 	c #538BCF",
"L 	c #4A6789",
"M 	c #507CB4",
"N 	c #4A6F9D",
"O 	c #5684BB",
"P 	c #537EB2",
"Q 	c #3C597D",
"R 	c #4B74A9",
"S 	c #5787C4",
"T 	c #45668B",
"U 	c #4E76A8",
"V 	c #4B709A",
"W 	c #3D5670",
"X 	c #4C6990",
"Y 	c #4E74A2",
"Z 	c #5080BD",
"` 	c #3D4752",
" .	c #5185C4",
"..	c #4973A5",
"+.	c #456B9B",
"@.	c #5079AA",
"#.	c #486B95",
"$.	c #5485BB",
"%.	c #496E99",
"&.	c #3F5573",
"*.	c #3B5D8B",
"=.	c #5087C6",
"-.	c #4A617D",
";.	c #4972A6",
">.	c #416C9D",
",.	c #496589",
"'.	c #5C83AD",
").	c #4D7BB5",
"!.	c #4B71A1",
"~.	c #486791",
"{.	c #5A89BE",
"].	c #416082",
"^.	c #4C6D98",
"/.	c #3F5E85",
"(.	c #426B97",
"_.	c #3A4F68",
":.	c #4F78AB",
"<.	c #2F435B",
"[.	c #4F759E",
"}.	c #546E8D",
"|.	c #466FA3",
"1.	c #496990",
"2.	c #4C739E",
"3.	c #3C5578",
"4.	c #4E84BF",
"5.	c #4B75AA",
"6.	c #5D8BBF",
"7.	c #4A6284",
"8.	c #486487",
"9.	c #5280B5",
"0.	c #334B66",
"a.	c #446894",
"b.	c #324969",
"c.	c #304C6C",
"d.	c #4B6684",
"e.	c #456388",
"f.	c #58789B",
"g.	c #37506D",
"h.	c #506F97",
"i.	c #47719D",
"j.	c #4C6F9D",
"k.	c #426A9B",
"l.	c #6496D2",
"m.	c #435267",
"n.	c #5A7EAC",
"o.	c #48545F",
"p.	c #3D5778",
"q.	c #4E6584",
"r.	c #303E4F",
"s.	c #283C52",
"t.	c #425D81",
"u.	c #587694",
"v.	c #39485A",
"w.	c #5B84B7",
"x.	c #385A7F",
"y.	c #4E79AE",
"z.	c #40628E",
"A.	c #496F9C",
"B.	c #527AAB",
"C.	c #567EB4",
"D.	c #425670",
"E.	c #6985A8",
"F.	c #22292F",
"G.	c #456B95",
"H.	c #558FD2",
"I.	c #538BD1",
"J.	c #35495F",
"K.	c #404C5A",
"L.	c #4D637E",
"M.	c #4B76A8",
"N.	c #496B96",
"O.	c #465971",
"P.	c #42699A",
"Q.	c #476C9E",
"R.	c #4B6A94",
"S.	c #527EB4",
"T.	c #5A88BE",
"U.	c #375980",
"V.	c #495C78",
"W.	c #4D87C8",
"X.	c #4E85C5",
"Y.	c #4D84C4",
"Z.	c #4D88D1",
"`.	c #444B4D",
" +	c #44546B",
".+	c #3B4F6A",
"++	c #345274",
"@+	c #3E546C",
"#+	c #4675AE",
"$+	c #3F6799",
"%+	c #5F94D2",
"&+	c #3B5271",
"*+	c #5986BC",
"=+	c #526680",
"-+	c #2F3945",
";+	c #5E7FAB",
">+	c #5790D5",
",+	c #4783C9",
"'+	c #6396D4",
")+	c #404C59",
"!+	c #435973",
"~+	c #4A75A8",
"{+	c #4D6D94",
"]+	c #3D6B9F",
"^+	c #4D6F95",
"/+	c #3F689C",
"(+	c #40628B",
"_+	c #5E96DD",
":+	c #405E80",
"<+	c #476A96",
"[+	c #4A6C95",
"}+	c #333C48",
"|+	c #474D55",
"1+	c #5A585C",
"2+	c #4D5661",
"3+	c #3A5C83",
"4+	c #4F729C",
"5+	c #476383",
"6+	c #3B669D",
"7+	c #4A71A2",
"8+	c #3E679C",
"9+	c #4570A5",
"0+	c #568BC9",
"a+	c #44668F",
"b+	c #4D7FBE",
"c+	c #4F739C",
"d+	c #4D7EC0",
"e+	c #3D5A77",
"f+	c #466893",
"g+	c #406A97",
"h+	c #467DC0",
"i+	c #54759C",
"j+	c #3D5C81",
"k+	c #4B71A2",
"l+	c #497CBD",
"m+	c #435F83",
"n+	c #4975AF",
"o+	c #4870A2",
"p+	c #497BB5",
"q+	c #4D76A6",
"r+	c #416EA6",
"s+	c #406285",
"t+	c #548BD4",
"u+	c #3F638D",
"v+	c #4A6B94",
"w+	c #4A6992",
"x+	c #3B5C83",
"y+	c #4377B7",
"z+	c #4A72A4",
"A+	c #446B98",
"B+	c #43638E",
"C+	c #4887D4",
"D+	c #436EA0",
"  . + @ # $ % & * = - ; > , ' ) ",
"! ~ { ] ^ / ( _ : < [ } | 1 2 3 ",
"4 5 6 7 8 9 0 ] a b c d e f g h ",
"i j k l m n o p q r s t u v w x ",
"y z A B C D E F G H I J K L M N ",
"O P Q R S T U V W X Y Z `  ...+.",
"@.#.$.%.&.*.=.-.;.>.,.'.).!.N ~.",
"{.].^./.(._.:.<.[.}.|.1.2.3.4.5.",
"6.7.8.9.0.a.b.c.d.e.f.g.h.i.j.k.",
"l.m.n.o.p.q.r.s.t.u.v.w.x.y.z.A.",
"B.C.D.E.F.G.H.I.J.K.L.M.N.O.P.Q.",
"R.S.T.U.V.W.X.Y.Z.`. +.+++@+#+$+",
"%+&+*+=+-+;+>+,+'+)+!+~+{+]+^+/+",
"(+_+:+<+[+}+|+1+2+3+4+5+6+7+8+9+",
"0+a+b+c+d+e+f+g+h+i+j+|.k+l+m+n+",
"o+p+q+r+s+t+u+v+w+x+y+z+A+B+C+D+"};
